<?xml version="1.0" encoding="UTF-8"?>
<svg id="Layer_1" xmlns="http://www.w3.org/2000/svg" version="1.1" viewBox="0 0 1080 300">
  <!-- Generator: Adobe Illustrator 29.6.1, SVG Export Plug-In . SVG Version: 2.1.1 Build 9)  -->
  <defs>
    <style>
      .st0 {
        fill: #ff0303;
      }

      .st1 {
        fill: #fff;
      }
    </style>
  </defs>
  <path class="st0" d="M409.62,49.27h-144.84l-13.68,23.7h144.84s28.6.63,15.28,23.7h-191.06s-106.12,0-106.12,90.75c0,0-.7,63.31,78.26,63.31,84.72,0,107.07-75.13,182.9-91.67l-39.24,67.97h28.97l41.09-71.16h0l.02-.03,34.16-59.16s27.33-47.4-30.57-47.4h-.01ZM229.53,198.72c-47.13,0-47.13-35.89-47.13-35.89,0-54.31,63.05-54.31,63.05-54.31h158.94l-14.75,25.55c-84.59,10.71-114.84,64.66-160.11,64.66h0Z"/>
  <g>
    <path class="st1" d="M512.34,184.21c-5.47,0-10.35-.96-14.63-2.88s-7.66-4.76-10.14-8.54-3.71-8.5-3.71-14.16c0-4.77.87-8.77,2.63-12.01,1.75-3.24,4.13-5.85,7.15-7.82s6.45-3.46,10.3-4.47c3.85-1,7.9-1.71,12.15-2.12,4.99-.52,9.01-1.01,12.06-1.48,3.05-.46,5.27-1.16,6.65-2.09,1.38-.93,2.07-2.31,2.07-4.13v-.34c0-3.54-1.11-6.27-3.32-8.21-2.22-1.94-5.35-2.9-9.41-2.9-4.28,0-7.69.94-10.22,2.82-2.53,1.88-4.21,4.24-5.03,7.07l-22.01-1.79c1.12-5.21,3.31-9.73,6.59-13.54,3.28-3.82,7.51-6.76,12.71-8.82,5.19-2.07,11.22-3.1,18.07-3.1,4.77,0,9.34.56,13.71,1.68s8.27,2.85,11.67,5.2c3.41,2.35,6.1,5.35,8.07,9.02,1.97,3.67,2.96,8.05,2.96,13.15v57.86h-22.57v-11.9h-.67c-1.38,2.68-3.22,5.04-5.53,7.07-2.31,2.03-5.08,3.61-8.32,4.75s-6.98,1.7-11.23,1.7v-.02ZM519.15,167.79c3.5,0,6.59-.7,9.27-2.09,2.68-1.4,4.78-3.29,6.31-5.67,1.53-2.38,2.29-5.08,2.29-8.1v-9.1c-.75.48-1.76.92-3.04,1.31-1.29.39-2.73.75-4.33,1.06-1.6.32-3.2.6-4.8.84-1.6.24-3.05.46-4.36.64-2.79.41-5.23,1.06-7.32,1.95-2.09.89-3.71,2.09-4.86,3.6-1.15,1.51-1.73,3.38-1.73,5.61,0,3.24,1.18,5.71,3.55,7.4,2.36,1.7,5.37,2.54,9.02,2.54h0Z"/>
    <path class="st1" d="M593.62,68.2v114.39h-23.79v-114.39h23.79Z"/>
    <path class="st1" d="M641.78,184.27c-8.83,0-16.41-1.8-22.76-5.39-6.35-3.59-11.24-8.69-14.66-15.3-3.43-6.61-5.14-14.44-5.14-23.49s1.71-16.57,5.14-23.23c3.43-6.66,8.26-11.86,14.49-15.58,6.24-3.72,13.56-5.59,21.98-5.59,5.66,0,10.94.9,15.83,2.71,4.9,1.81,9.18,4.52,12.85,8.13s6.53,8.15,8.57,13.6c2.05,5.46,3.07,11.83,3.07,19.13v6.53h-72.44v-14.75h50.04c0-3.43-.75-6.46-2.24-9.1s-3.55-4.72-6.17-6.23-5.67-2.26-9.13-2.26-6.81.83-9.58,2.48c-2.77,1.66-4.94,3.87-6.51,6.65-1.56,2.77-2.37,5.86-2.4,9.24v14.02c0,4.25.79,7.91,2.37,11s3.83,5.47,6.73,7.15c2.9,1.68,6.35,2.51,10.33,2.51,2.65,0,5.06-.37,7.26-1.12s4.08-1.86,5.64-3.35,2.75-3.31,3.57-5.47l22.01,1.45c-1.12,5.29-3.4,9.89-6.84,13.82-3.44,3.93-7.88,6.98-13.29,9.16-5.42,2.18-11.66,3.27-18.74,3.27h.02Z"/>
    <path class="st1" d="M702.66,96.8l15.75,29.99,16.14-29.99h24.41l-24.85,42.9,25.53,42.9h-24.3l-16.92-29.66-16.64,29.66h-24.58l25.47-42.9-24.58-42.9h24.58-.01Z"/>
    <path class="st1" d="M830.67,121.26l-21.78,1.34c-.37-1.86-1.17-3.55-2.4-5.06-1.23-1.51-2.84-2.72-4.83-3.63-1.99-.91-4.37-1.37-7.12-1.37-3.69,0-6.8.77-9.33,2.32s-3.8,3.6-3.8,6.17c0,2.05.82,3.78,2.46,5.19,1.64,1.42,4.45,2.55,8.43,3.41l15.53,3.13c8.34,1.71,14.56,4.47,18.66,8.27s6.15,8.79,6.15,14.97c0,5.62-1.65,10.56-4.94,14.8-3.3,4.25-7.8,7.55-13.52,9.92-5.72,2.36-12.3,3.55-19.74,3.55-11.36,0-20.4-2.37-27.12-7.12s-10.66-11.22-11.81-19.41l23.4-1.23c.71,3.46,2.42,6.1,5.14,7.9,2.72,1.81,6.2,2.71,10.44,2.71s7.53-.81,10.08-2.43,3.84-3.71,3.88-6.28c-.04-2.16-.95-3.94-2.74-5.33-1.79-1.4-4.54-2.47-8.27-3.21l-14.86-2.96c-8.38-1.68-14.61-4.58-18.68-8.71-4.08-4.13-6.12-9.4-6.12-15.81,0-5.51,1.5-10.26,4.5-14.24,3-3.98,7.22-7.06,12.68-9.22s11.85-3.24,19.19-3.24c10.84,0,19.37,2.29,25.61,6.87s9.88,10.82,10.92,18.71h-.01Z"/>
    <path class="st1" d="M882.62,96.8v17.87h-51.66v-17.87h51.66ZM842.68,76.24h23.79v79.98c0,2.2.34,3.9,1.01,5.11s1.61,2.06,2.82,2.54,2.62.73,4.22.73c1.12,0,2.23-.1,3.35-.31,1.12-.2,1.97-.36,2.57-.47l3.74,17.71c-1.19.37-2.87.81-5.03,1.31-2.16.5-4.79.81-7.88.92-5.74.22-10.75-.54-15.05-2.29s-7.64-4.47-10.03-8.15c-2.38-3.69-3.56-8.34-3.52-13.96v-83.11h.01Z"/>
    <path class="st1" d="M923.73,184.27c-8.68,0-16.17-1.85-22.48-5.56-6.31-3.7-11.18-8.88-14.61-15.53s-5.14-14.36-5.14-23.15,1.71-16.62,5.14-23.26c3.43-6.65,8.29-11.82,14.61-15.53,6.31-3.7,13.8-5.56,22.48-5.56s16.17,1.85,22.48,5.56,11.18,8.88,14.61,15.53,5.14,14.4,5.14,23.26-1.71,16.5-5.14,23.15-8.29,11.82-14.61,15.53c-6.31,3.7-13.8,5.56-22.48,5.56ZM923.85,165.83c3.95,0,7.24-1.13,9.89-3.38,2.64-2.25,4.64-5.33,6-9.24s2.04-8.36,2.04-13.35-.68-9.44-2.04-13.35c-1.36-3.91-3.36-7-6-9.27-2.65-2.27-5.94-3.41-9.89-3.41s-7.33,1.14-10.03,3.41-4.73,5.36-6.09,9.27c-1.36,3.91-2.04,8.36-2.04,13.35s.68,9.44,2.04,13.35,3.39,6.99,6.09,9.24,6.04,3.38,10.03,3.38h0Z"/>
  </g>
</svg>