<?xml version="1.0" encoding="UTF-8"?>
<svg id="Layer_1" xmlns="http://www.w3.org/2000/svg" xmlns:xlink="http://www.w3.org/1999/xlink" version="1.1" viewBox="0 0 1920 1080">
  <!-- Generator: Adobe Illustrator 30.0.0, SVG Export Plug-In . SVG Version: 2.1.1 Build 123)  -->
  <defs>
    <style>
      .st0 {
        fill: none;
      }

      .st1 {
        fill: #202020;
      }

      .st2 {
        clip-path: url(#clippath);
      }
    </style>
    <clipPath id="clippath">
      <rect class="st0" width="1920" height="1080"/>
    </clipPath>
  </defs>
  <g class="st2">
    <g>
      <g>
        <path class="st1" d="M338.9,282c19.5,16.4,33.3,37.5,46.8,59.5,8.4,13.6,17.9,27.8,31,46,10.3,14.4,20.2,29.5,29.7,44.1,7.9,12.1,16,24.5,24.4,36.6,11.7,16.8,24.7,32.8,37.3,48.4l3.8,4.7c12.9,15.9,26.4,30.3,40.3,43,11.2,10.3,22.7,19.9,35.4,30.6,19.3,16.2,32.4,37.8,42.3,70.1,5.4,17.7,12.7,38.3,25.3,56.5,13.4,19.3,31.5,34.1,47.3,46.4,12.5,9.7,25.2,20.4,31.1,35.7,6.2,15.8,5.1,33.2-3.1,51.7-6.8,15.4-15.9,30-24.7,44.2-1.4,2.2-2.8,4.5-4.2,6.7-11.9,19.3-16.9,41.2-21,62.1-2.6,13.1-6.6,26-10.5,38.4-2,6.3-4,12.8-5.8,19.3-.9,3.1-1.8,6.1-2.7,9.1-3.1,10.1-6.3,20.6-6.9,31.7-.7,13.1,6.9,22.8,19.7,25.2,16.6,3.2,32.5-.5,47.9-4.1,2.5-.6,5.1-1.2,7.6-1.7,9.9-2.2,19.9-4.7,29.5-7.1,12.5-3.1,25.4-6.4,38.2-8.9,17.8-3.5,32.5-4.6,46.2-3.3,26.5,2.5,45.6,11.9,58.3,28.7.9,1.1,1.7,2.3,2.4,3.5h1.8c-.9-1.5-1.9-2.9-3-4.4-13-17.1-32.5-26.7-59.4-29.3-13.9-1.3-28.7-.3-46.6,3.3-12.9,2.6-25.8,5.8-38.3,9-9.7,2.4-19.6,4.9-29.5,7.1-2.5.6-5.1,1.1-7.6,1.7-15.2,3.5-30.9,7.2-47.2,4.1-12-2.3-19.1-11.4-18.5-23.7.6-10.9,3.7-21.3,6.8-31.4.9-3,1.9-6.1,2.7-9.2,1.8-6.4,3.8-12.9,5.8-19.2,3.9-12.5,7.9-25.4,10.5-38.6,4.1-20.7,9.1-42.5,20.8-61.6,1.4-2.2,2.8-4.5,4.1-6.7,8.8-14.2,17.9-28.8,24.8-44.4,8.4-18.9,9.4-36.7,3.1-52.9-6.1-15.6-19-26.5-31.6-36.3-15.8-12.2-33.8-26.9-47-46.1-12.5-18-19.7-38.5-25.1-56.1-10-32.6-23.2-54.4-42.8-70.8-12.7-10.6-24.2-20.3-35.4-30.5-13.8-12.7-27.3-27.1-40.1-42.9l-3.8-4.7c-12.6-15.5-25.6-31.5-37.3-48.3-8.4-12-16.5-24.5-24.4-36.5-9.6-14.6-19.4-29.7-29.8-44.2-13-18.2-22.6-32.4-30.9-46-13.6-22.1-27.4-43.3-47.1-59.8-4.4-3.7-8.4-8-11.7-11.6-10.1-11.1-12.9-24.6-8.4-39.9,4-13.5,8.8-24.7,14.8-34.2l.8-1.3c8.7-13.8,17.7-28.1,31.2-38.4,14.4-10.9,26.6-11.6,38.3-2.2,5.9,4.7,9.5,11.6,13.1,18.2l1,1.8c2,3.6,3.8,7.4,5.5,11.1,3.1,6.5,6.4,13.3,10.5,19.3,13.3,19.7,32.6,32.9,59.3,40.4,26.6,7.5,53.6,9.6,74.2,10.5,11,.5,22.3.7,33.1.9,18.3.3,37.3.7,55.8,2.5,6.3.6,12.7,1.5,18.9,2.3,3.4.5,6.7.9,10.1,1.3,3.9.5,7.8,1.1,11.7,1.7,7,1.1,14.3,2.2,21.5,2.6,20.3,1.2,41.7-.3,69.4-4.7,7.5-1.2,14.9-2.4,22.4-3.6l8.3-1.3c13.2-2.1,28.7-3.9,43.9-1.1,17.7,3.3,35.1,10.6,51.7,21.6l2.1,1.4c21.2,14.1,43.2,28.7,56,52.3,8.1,14.9,11.1,29.8,9.1,44.1-2.8,19.5-13,37.2-30.3,52.7-11.5,10.2-24.8,19.8-43.2,31.2-1.7,1-3.4,2.1-5.1,3.1-19,11.7-38.6,23.8-53.3,41.7-14.2,17.5-18,34.9-11.3,53.1,8.4,23.2,27.9,33.2,43.9,39.3,18.6,7.1,38.5,9.1,57.8,11,5.6.6,11.4,1.1,17.1,1.8,11.9,1.4,24.5,3.7,35.9,10.1,20.5,11.5,30.4,30.8,37.4,48.1,4.5,11.2,8.1,23,11.5,34.4,2.7,9,5.5,18.4,8.8,27.5,12,33,37,52,76.4,58.2,11.6,1.8,23.5,3.2,35,4.5,4.9.6,9.8,1.1,14.7,1.7,21.9,2.7,40.4,4.3,59.2,3.3,6-.3,11.7-2.5,16.9-6.5,15.8-12.1,24.5-29.9,26-52.9,1.4-22.8.7-40.2-2.5-56.5-4.1-21.1-8.7-40.6-14.3-59.5-2.5-8.4-5.5-16.8-8.4-24.8-4-11.2-8.1-22.7-10.9-34.5-.5-2-1-3.9-1.5-5.8-1.3-4.7-2.7-9.6-2.8-14.4-.3-11.3,3.2-22.4,10.8-33.9,6.9-10.4,16-19.2,24.8-27.8,4.6-4.4,9.3-9,13.6-13.7,10.9-11.9,18.4-23.1,23.5-35.2,4.9-11.6,7.4-23.8,9.8-35.6.7-3.6,1.5-7.3,2.3-10.9,5.2-23,15.8-43.4,31.6-60.5,9.9-10.8,20.7-13.9,32.1-9.2,5.7,2.4,10.8,6.3,15.7,10.1l.8.6c10.6,8.2,21.1,16.7,31.4,25,4.7,3.8,9.4,7.5,14,11.3,10.3,8.2,22.9,19.7,29.1,35.4,7.1,18.2,9.5,37.4,10.8,53.8.3,4,.7,8,1.1,11.9.8,9.2,1.7,18.6,2.1,27.9.3,8.3,1,16.8,1.6,24.9.9,11.3,1.8,23,1.8,34.5,0,.5,0,.9,0,1.4,0,1.1-.1,2.3,0,3.4,1.8,10.4,2.7,21.1,3.6,31.5.7,7.9,1.3,16,2.4,24,.5,3.5.9,7.2,1.3,10.7.7,6,1.4,12.2,2.5,18.2v.8c3.4,18.6,6.7,37.9,12.1,56.5,8.9,30.5,22.1,54.9,40.5,74.6,6.9,7.4,14.6,14.4,22,21.1,6.1,5.5,12.4,11.2,18.3,17.2,13.5,13.7,22.2,28.3,26.5,44.3,3.3,12.2,5.3,24.7,6.8,34.3,1.7,11.1,2.5,22.3,3.3,33.2.2,3.3.5,6.5.8,9.8,1,12.5.6,25.3.2,37.7v2c-.4,9.1-1.8,18.8-4.5,30.4-7.3,31.1-23.2,58.1-37.8,80.3-4.4,6.7-9.6,12.6-15.5,17.7h2.2c5.5-5,10.4-10.6,14.6-16.9,14.7-22.4,30.7-49.5,38-80.8,2.7-11.7,4.1-21.5,4.4-30.7v-2c.5-12.5.9-25.3-.1-37.9-.3-3.3-.5-6.5-.8-9.8-.8-10.9-1.6-22.2-3.3-33.3-1.4-9.6-3.5-22.1-6.8-34.4-4.4-16.3-13.1-31.1-26.8-45-5.9-6-12.2-11.7-18.3-17.3-7.4-6.7-15-13.6-21.9-21-18.2-19.5-31.3-43.7-40.1-74-5.4-18.5-8.7-37.7-11.9-56.3v-.8c-1.2-5.9-1.9-12.1-2.6-18.1-.4-3.5-.8-7.2-1.3-10.7-1.1-8-1.8-16.1-2.4-24-.9-10.4-1.7-21.2-3.6-31.6-.2-1-.1-2,0-3.1,0-.5,0-1,0-1.5,0-11.6-.9-23.3-1.8-34.6-.7-8.1-1.3-16.5-1.6-24.8-.3-9.3-1.2-18.8-2.1-28-.4-4-.7-8-1.1-11.9-1.4-16.5-3.7-35.8-10.9-54.2-6.3-16.1-19.1-27.7-29.5-36.1-4.7-3.8-9.4-7.5-14-11.3-10.2-8.3-20.8-16.8-31.4-25l-.8-.6c-5-3.9-10.1-7.9-16-10.3-12-5-23.4-1.7-33.8,9.6-16,17.3-26.7,37.9-31.9,61.2-.8,3.6-1.6,7.3-2.3,10.9-2.4,11.7-4.9,23.8-9.7,35.3-5,11.9-12.4,23-23.2,34.7-4.3,4.7-9,9.3-13.6,13.6-8.9,8.6-18,17.4-25,28-7.8,11.8-11.4,23.2-11.1,34.8.1,5,1.5,10,2.8,14.8.5,1.9,1.1,3.8,1.5,5.8,2.8,11.8,7,23.4,11,34.6,2.9,8.1,5.9,16.4,8.3,24.8,5.6,18.9,10.2,38.3,14.3,59.4,3.1,16.2,3.9,33.5,2.5,56.2-1.4,22.5-9.9,40-25.4,51.8-4.9,3.8-10.3,5.9-16.1,6.2-18.7,1-37.1-.6-58.9-3.3-4.9-.6-9.8-1.2-14.7-1.7-11.5-1.3-23.3-2.7-34.9-4.5-38.8-6-63.4-24.7-75.2-57.2-3.3-9-6.1-18.4-8.8-27.4-3.4-11.4-7-23.2-11.5-34.5-7.1-17.6-17.1-37.2-38.1-48.9-11.7-6.5-24.5-8.8-36.5-10.3-5.7-.7-11.5-1.3-17.1-1.8-19.2-1.9-39-3.9-57.4-10.9-15.7-6-34.9-15.8-43.1-38.4-6.5-18-3-34.4,11.1-51.7,14.4-17.7,34-29.8,52.9-41.4,1.7-1,3.4-2.1,5.1-3.1,18.5-11.4,31.8-21.1,43.4-31.4,17.6-15.7,28-33.7,30.8-53.6,2.1-14.6-1-29.8-9.3-45-13-24-35.1-38.7-56.5-52.9l-2.1-1.4c-16.8-11.2-34.4-18.5-52.3-21.8-15.4-2.9-31.1-1.1-44.4,1.1l-8.3,1.3c-7.5,1.2-14.9,2.4-22.4,3.6-27.6,4.4-48.9,5.8-69.1,4.7-7.2-.4-14.4-1.5-21.4-2.6-3.8-.6-7.8-1.2-11.7-1.7-3.4-.4-6.7-.9-10.1-1.3-6.2-.8-12.6-1.7-19-2.3-18.6-1.8-37.6-2.1-56-2.5-10.8-.2-22.1-.4-33.1-.9-20.5-.9-47.5-3-73.9-10.4-26.3-7.4-45.4-20.4-58.4-39.8-4-6-7.2-12.7-10.4-19.1-1.8-3.7-3.6-7.5-5.6-11.1l-1-1.8c-3.6-6.8-7.4-13.8-13.5-18.7-12.4-9.9-25.1-9.2-40.2,2.2-13.7,10.4-22.8,24.8-31.6,38.8l-.8,1.3c-6.1,9.7-11,21-15,34.6-4.7,15.9-1.7,29.8,8.7,41.3,3.4,3.7,7.4,8,11.9,11.8Z"/>
        <path class="st1" d="M-158.2,311c.6-.8,1.2-1.7,1.9-2.5,14.5-18.3,33.8-33.2,59-45.7,20.9-10.4,45.2-23.5,66.9-41.8,7.7-6.5,14.1-14.4,20.3-22.1,2.1-2.6,4.3-5.2,6.4-7.8,17.5-20.6,36.6-37.1,58.3-50.5,23.8-14.6,49-30.6,72.5-48.6,3.8-2.9,7.6-5.8,11.4-8.8,9.1-7,18.4-14.3,27.9-21,16.1-11.4,34.9-20.9,57.5-29.1,28.4-10.3,48.6-27.5,61.4-52.2h-1.7c-12.6,24-32.4,40.7-60.2,50.8-22.8,8.3-41.7,17.9-57.9,29.3-9.5,6.8-18.9,14-28,21-3.8,2.9-7.6,5.9-11.4,8.8-23.5,17.9-48.6,33.9-72.4,48.5-21.9,13.5-41,30.1-58.6,50.8-2.2,2.6-4.3,5.2-6.4,7.8-6.2,7.6-12.6,15.5-20.1,21.9-21.6,18.2-45.8,31.3-66.6,41.6-25.4,12.6-44.9,27.7-59.5,46.1-.3.3-.5.6-.7,1v2.5Z"/>
        <path class="st1" d="M388.9,656.6c-12.8-27-32.2-48.3-59.4-65.3-19.8-12.4-43.1-20.6-71.2-25.1-19.6-3.2-39.6-4.1-58.4-4.8-21.5-.8-44.5-2.7-66.7-10.7-36.7-13.2-59.9-29.7-75.2-53.7-8.4-13.1-14.6-27.7-20.2-40.7-12.4-29.1-30.7-50.2-55.7-64.4-13-7.3-27.2-11.9-41.1-16.3-4.9-1.6-10-3.2-15-4.9-24.6-8.5-50.8-18-75.6-29.5-.5-.2-1.2-.5-1.8-.7-1-.4-2-.8-2.6-1.2-1.7-1.1-3.1-2.2-4.3-3.3v2c1,.9,2.2,1.7,3.5,2.6.7.5,1.8.9,2.9,1.3.6.2,1.2.5,1.7.7,24.9,11.5,51.1,21,75.7,29.6,5,1.7,10.1,3.3,15,4.9,13.7,4.4,27.9,8.9,40.8,16.1,24.8,14,42.8,34.9,55.1,63.7,5.5,13,11.8,27.7,20.3,40.9,19.9,31.1,51,45.3,76,54.3,22.4,8.1,45.5,9.9,67.2,10.8,18.7.7,38.6,1.7,58.2,4.8,27.9,4.5,51,12.6,70.6,24.9,26.9,16.8,46.1,37.9,58.8,64.7,6,12.6,7.9,23.7,5.8,33.9-2.4,11.2-8.4,22.4-19.1,35-5.7,6.7-12,13-18.2,19.1-4.7,4.7-9.6,9.5-14.1,14.5-10.6,11.7-23.4,23.4-40.1,36.7-2.5,2-5,3.9-7.5,5.9-9.7,7.6-19.7,15.4-28,24.7-13.2,14.8-16.4,29.9-9.9,46.1,3.4,8.5,7.8,16.7,13.7,25.8,7,10.8,14.7,21.3,22.2,31.5,8.2,11.3,16.7,22.9,24.4,34.9,7.4,11.6,11.4,23.6,12.1,35.7.6,11.4-4.5,22.6-8.3,30.1-5.2,10.1-11,20.1-16.7,29.7-7.2,12.3-14.5,25-20.9,38.1h1.7c6.2-12.8,13.5-25.3,20.5-37.3,5.6-9.7,11.4-19.7,16.7-29.8,3.9-7.6,9.1-19,8.5-30.8-.6-12.4-4.8-24.6-12.3-36.4-7.7-12-16.2-23.7-24.4-35-7.4-10.2-15.1-20.7-22.1-31.5-5.9-9-10.2-17.2-13.6-25.6-6.4-15.9-3.3-30,9.7-44.6,8.2-9.3,18.2-17,27.8-24.5,2.5-2,5-3.9,7.5-5.9,16.8-13.4,29.6-25.1,40.2-36.9,4.5-5,9.4-9.8,14-14.4,6.2-6.1,12.6-12.4,18.3-19.2,10.8-12.8,17-24.2,19.4-35.7,2.2-10.5.3-21.9-5.9-34.9Z"/>
        <path class="st1" d="M519,1064c-33.6-8-66.7-1-98.2,20.9-6.9,4.8-13,9.5-18.3,14.1h2.3c5-4.3,10.6-8.5,16.9-12.9,31.2-21.7,63.8-28.6,97-20.7,28.1,6.7,57.5,17.7,90,33.6h3.2c-.5-.2-.9-.5-1.4-.8-33.1-16.3-63-27.5-91.5-34.3Z"/>
      </g>
      <path class="st1" d="M1297.7,252.7c-7.8-9.8-16.1-17-25.3-21.9-14-7.5-30.9-15.4-49.5-16.8-13.2-1-27.2-1.8-41.4.9-8.7,1.7-15.6,2.6-21.8,3.1-5,.4-10.1,1-14.9,1.6-6.7.8-13.6,1.7-20.4,1.9-44.8,1-77.1-16.2-98.8-52.4-11-18.4-21.5-32.2-33-43.6-18.1-18-38.6-31.2-56.3-41.7-14.6-8.7-31.3-19.2-44.7-33.2-19.9-20.7-43.9-35-71.5-42.7-19.1-5.3-36.6-14.2-53.2-27h-4.8c17.7,14.3,36.6,24.2,57.2,29.9,27.1,7.5,50.7,21.5,70.1,41.8,13.7,14.2,30.6,24.8,45.4,33.6,17.5,10.4,37.8,23.5,55.7,41.2,11.3,11.2,21.6,24.9,32.5,43,21.7,36.3,53.8,53.9,97.9,53.9,1.2,0,2.4,0,3.6,0,7-.1,14-1,20.7-1.9,4.8-.6,9.8-1.2,14.8-1.6,6.3-.4,13.4-1.4,22.2-3.1,13.8-2.6,27.6-1.9,40.6-.9,18.1,1.4,34.6,9.1,48.3,16.5,8.8,4.7,16.7,11.6,24.3,21.1,3.9,4.9,6.2,12.1,6.5,20.8.4,11.9-2.3,24.5-8.2,38.4-11.6,27.3-16.4,55.8-20.3,82.6-2.6,17.9-7.6,31.4-15.7,42.2-12.4,16.6-28.1,30-40.4,39.8-3.1,2.5-6.4,4.9-9.5,7.3-8.1,6.1-16.5,12.5-23.8,20.1-6.9,7.2-8.5,15.1-4.9,23.5,4.7,11,12.4,20.1,19.9,28.9l2.4,2.8c16,18.9,33.9,42,44.7,69.2,9.7,24.5,14.6,47.9,14.8,71.5,0,3.5-.4,6.8-.9,10.3-.2,1.4-.4,2.9-.6,4.4-1.6,14.4-6.7,25.9-15.5,35.1-12.2,12.8-28,16.2-47.8,17.3-25.1,1.4-47.4,0-68-4.7-22.1-4.9-37.4-14.1-48.1-28.8-10.7-14.8-15.2-31.9-19.2-49.6-3.8-16.6-7.2-33.2-11-51.6-1.5-7.2-2.5-15.3-2.9-24-.6-13.1,4.3-25.4,14.3-35.6,10.9-11.1,24.1-20,36.8-28.7l1.4-1c2.8-1.9,5.7-3.7,8.5-5.5,8-5.1,16.3-10.4,23.2-17.4,8.9-9,9.9-17,3.3-27.6-4.6-7.5-9.9-15.5-16.7-22.2-14.2-14.1-31.6-26.1-54.8-37.7-22.1-11-34.3-25.4-38.4-45.3-1.1-5.2-2.2-10.4-3.3-15.6-1-4.7-2-9.4-3-14.1-7.3-34.9-26.6-63-57.5-83.7-15-10.1-30.9-19.4-46.3-28.4l-1-.6c-16.4-9.7-33.3-15.5-50.2-17.4-14.7-1.6-29.5.9-42.1,3.3-29.1,5.7-55.5,8.2-80.8,7.7-11.1-.2-23.1-1.4-36.7-3.7h-.6c-19.2-3.3-39.1-6.6-58.8-5.4-12.4.8-25.4,1.5-38.6,2.1-31.3,1.5-57.4,2.2-83.8-4.2-26.5-6.4-44.2-17.7-55.6-35.4-12-18.5-16.9-39.9-19.8-56.4l-1-6c-2.1-12.2-4.3-24.9-7.5-37.2-2.7-10.7-7.1-17.5-13.3-20.8-6.2-3.3-14-3.2-24.1.4-22.5,7.9-40.8,22.9-57.7,47.3-7.2,10.4-14.3,21.2-21.2,31.6-12.2,18.4-24.7,37.5-38.4,55.4l-.4.6c-10.3,13.5-20.9,27.4-27.3,43.5-3.9,9.9-6.2,20.2-7.8,29.1-2.3,12.2,2.4,20.9,7.3,27.7,7.6,10.6,19.6,12.7,31.2,14.8,1.1.2,2.3.4,3.4.6,17.6,3.3,37.6,8.4,53.3,21.3,31.8,26.2,56.8,52.9,76.5,81.4,7.7,11.2,15,23,22.1,34.4,9.1,14.7,18.5,29.9,29,44,2.2,3,4.4,6,6.6,9,24.2,32.9,49.3,66.9,80.4,95.1,22,19.9,34,45,42.9,66.8.9,2.1,1.7,4.2,2.6,6.4,6.1,15.2,12.4,30.8,21.9,44.8,11.3,16.6,24.2,33.9,41,48.2,1.9,1.6,3.9,3.2,5.8,4.9,8.2,6.7,16.6,13.6,22.4,22.7,5.7,9,10.7,17.8,9.1,27.8-1.9,11.3-7.2,21.6-15.9,30.6-11.1,11.4-24.6,19.2-35.1,24.7-18.9,9.9-27.6,19.3-23.2,43.1,2.6,13.8,4.7,28.8,2.3,44.1-2.7,18-8.5,32.8-17.7,45.3-5.8,7.9-15.9,17.5-31,18.9-8.5.8-21.2,1.4-33.3-1.4-23.4-5.5-48.1-12.8-75.5-22.5-20.6-7.3-40-17.8-58.8-27.9-6.9-3.7-14.1-7.6-21.2-11.3-40.5-20.8-68.4-48.4-85.3-84.4-8.9-18.9-7.1-34,5.6-49.1,11.7-14,24.4-27.6,36.6-40.8,6.8-7.4,13.9-15,20.8-22.6,11.2-12.4,24.5-23.1,37.3-33.5,3.9-3.2,8-6.4,11.9-9.7,14.4-12,21-26,19.4-41.8-1-10.5-4.3-21.1-9.7-31.7-8.7-17-20.7-31.6-32.3-44.9-30.2-34.5-69.8-57.7-121.1-71-23.4-6.1-47.6-8.9-70.9-11.6-10.1-1.2-20.6-2.4-30.9-3.9-20.2-2.9-39.2-10.3-58.3-22.8-16.2-10.6-28.4-25.9-37.4-46.9-11.5-26.9-25.2-49-42.1-67.6-17.8-19.6-40.4-34.9-71.2-48.3-1.8-.8-3.5-1.5-5.3-2.2-9.6-4-19.5-8.1-26.3-16.2-8.5-10.1-8.5-12.2,0-23,7.9-10,19.1-16,30-21.8,1.2-.6,2.3-1.2,3.4-1.8,29.8-16.1,51.1-36.3,65.1-61.8,13-23.8,30.6-43.9,53.8-61.5,7.7-5.8,15.6-11.6,23.3-17.2,15.5-11.3,31.5-23,46.3-35.7,18.6-15.9,35.5-27.1,53-35.3,9.1-4.2,18.6-7.9,27.9-11.5,7.7-3,15.7-6.1,23.4-9.5,24.6-10.8,39.8-26.5,46.5-47.8,1.9-5.9,3.5-11.9,5-17.9h-3.1c-1.4,5.7-3,11.4-4.8,17-6.6,20.8-20.8,35.4-44.9,46-7.6,3.4-15.6,6.4-23.2,9.4-9.3,3.6-18.8,7.3-28,11.6-17.8,8.3-34.9,19.6-53.7,35.7-14.8,12.6-30.7,24.3-46.2,35.5-7.7,5.6-15.6,11.4-23.3,17.3-23.5,17.9-41.4,38.3-54.6,62.4-13.7,25-34.6,44.9-63.9,60.6-1.1.6-2.3,1.2-3.4,1.8-11.2,6-22.7,12.1-31,22.6-9.3,11.9-9.3,15.6.1,26.8,7.3,8.6,17.6,12.9,27.5,17,1.8.7,3.5,1.5,5.3,2.2,30.4,13.2,52.7,28.3,70.2,47.5,16.7,18.4,30.3,40.2,41.6,66.7,9.2,21.5,21.8,37.3,38.5,48.2,19.4,12.7,38.9,20.3,59.5,23.2,10.3,1.5,20.8,2.7,30.9,3.9,23.3,2.7,47.4,5.5,70.5,11.5,50.7,13.1,89.8,36.1,119.6,70.1,11.5,13.2,23.4,27.7,31.9,44.3,5.2,10.3,8.4,20.6,9.4,30.7,1.4,14.7-4.8,27.9-18.4,39.2-3.9,3.3-8,6.5-11.9,9.6-12.9,10.4-26.3,21.2-37.6,33.8-6.8,7.6-13.9,15.2-20.7,22.6-12.2,13.2-24.9,26.8-36.7,40.9-13.5,16.1-15.4,32.2-6,52.3,17.2,36.6,45.5,64.7,86.6,85.8,7.1,3.6,14.2,7.5,21.2,11.3,18.9,10.2,38.4,20.8,59.3,28.1,27.5,9.7,52.3,17.1,75.8,22.6,7,1.6,14.1,2.2,20.6,2.2s9.9-.3,13.7-.7c12.9-1.2,24.4-8.1,33.2-20.1,9.5-12.9,15.4-28.1,18.2-46.6,2.4-15.8.3-31-2.4-45.1-4.2-22.3,3.3-30.3,21.6-39.9,10.7-5.6,24.4-13.5,35.8-25.3,9.1-9.4,14.7-20.2,16.7-32.2,1.8-11.1-3.5-20.5-9.5-29.9-6.1-9.5-14.7-16.6-23-23.4-2-1.6-3.9-3.2-5.8-4.8-16.6-14.1-29.3-31.2-40.5-47.6-9.4-13.7-15.6-29.2-21.6-44.2-.8-2.1-1.7-4.2-2.6-6.4-9-22.2-21.2-47.6-43.6-67.9-30.9-28-55.8-61.9-80-94.7-2.2-3-4.4-6-6.6-9-10.4-14.1-19.8-29.2-28.8-43.8-7.1-11.4-14.4-23.2-22.1-34.5-19.9-28.8-45.1-55.6-77-82-16.2-13.4-36.7-18.6-54.7-22-1.1-.2-2.3-.4-3.4-.6-11-2-22.4-4-29.3-13.6-4.5-6.3-8.9-14.3-6.8-25.4,1.6-8.7,3.8-18.9,7.7-28.5,6.3-15.8,16.8-29.5,26.9-42.8l.4-.6c13.7-18,26.3-37.1,38.5-55.6,6.8-10.4,13.9-21.1,21.1-31.5,16.4-23.8,34.3-38.5,56.2-46.1,9.2-3.2,16.3-3.4,21.7-.5,5.5,2.9,9.3,9.1,11.8,18.9,3.1,12.2,5.3,24.8,7.4,37l1,6c3,16.8,7.9,38.5,20.2,57.5,11.7,18.2,30.5,30.1,57.5,36.7,26.8,6.5,53.1,5.8,84.6,4.3,13.3-.6,26.3-1.4,38.7-2.1,19.3-1.2,39,2.1,58.1,5.3h.6c13.8,2.4,25.9,3.6,37.2,3.8,25.5.5,52.2-2.1,81.5-7.8,12.4-2.4,26.9-4.9,41.2-3.3,16.5,1.8,32.9,7.5,49,17l1,.6c15.3,9,31.1,18.3,46.1,28.3,30.2,20.2,49.2,47.8,56.2,81.8,1,4.7,2,9.4,3,14.1,1.1,5.2,2.2,10.4,3.3,15.6,4.2,20.5,17.3,36,40,47.3,22.9,11.4,40.1,23.2,54,37.1,6.6,6.6,11.7,14.3,16.2,21.7,5.8,9.4,5,15.9-2.9,23.9-6.7,6.7-14.8,11.9-22.7,16.9-2.8,1.8-5.7,3.7-8.6,5.6l-1.4,1c-12.9,8.7-26.2,17.7-37.3,29-10.6,10.8-15.8,23.9-15.2,37.8.4,8.9,1.4,17.1,2.9,24.5,3.8,18.4,7.3,35,11,51.6,4.1,18,8.7,35.5,19.7,50.7,11.2,15.4,27,25,49.9,30,20.9,4.6,43.5,6.2,68.9,4.7,17.8-1,36.2-3.9,49.8-18.3,9.3-9.7,14.6-21.8,16.3-36.8.2-1.4.4-2.9.6-4.3.5-3.5,1-7.1.9-10.8-.2-24-5.2-47.7-15-72.5-11-27.6-29-50.9-45.2-70l-2.4-2.8c-7.3-8.6-14.9-17.5-19.5-28.1-3.1-7.3-1.7-13.9,4.3-20.3,7.1-7.4,15.4-13.7,23.4-19.8,3.2-2.4,6.4-4.9,9.6-7.4,12.5-9.9,28.4-23.5,41-40.4,8.4-11.3,13.5-25.1,16.2-43.6,3.9-26.6,8.6-54.9,20.1-81.9,6.1-14.3,8.8-27.2,8.4-39.6-.3-9.3-2.8-17.1-7.1-22.5Z"/>
      <path class="st1" d="M514.6,462.3c35.1,43.7,71.6,75.3,111.4,96.7,18.2,9.8,32.2,21.1,43,34.7,12.1,15.3,16.1,33.2,18.5,48.7,4.1,27,11.2,54.9,34.4,75.9,5.9,5.3,12.1,10.4,18.1,15.4,3.4,2.8,6.7,5.5,10,8.4,18.5,15.7,29.8,34.3,33.5,55.3,3.8,21.9-.7,42.4-8.6,66.5-2.8,8.6-6.2,17.2-9.5,25.5-4.3,10.7-8.7,21.8-11.9,33.2-7.2,25.3-8.1,46.2-2.8,65.7,4.1,15,14.5,24.9,30.9,29.3,9.5,2.5,19.8,3.9,33.4,4.5,22.3,1,48.3,3.3,72.7,12.7,26.5,10.2,44.7,22.5,57.5,38.7,6.2,7.8,10.5,16.4,12.9,25.7h3.1c-2.5-10-7.1-19.1-13.7-27.5-13.1-16.6-31.8-29.2-58.8-39.6-24.8-9.6-51.1-11.9-73.6-12.9-13.4-.6-23.5-2-32.8-4.5-15.3-4.1-24.9-13.2-28.7-27.1-5.1-19-4.2-39.4,2.8-64.1,3.2-11.2,7.6-22.3,11.8-32.9,3.3-8.3,6.8-17,9.6-25.6,7-21.2,12.9-44.2,8.7-68-3.8-21.7-15.4-40.9-34.5-57-3.3-2.8-6.7-5.6-10.1-8.4-6-4.9-12.2-10-18-15.3-22.6-20.3-29.4-47.6-33.5-74.1-2.4-15.9-6.6-34.3-19.1-50.1-11-13.9-25.4-25.5-43.9-35.5-39.5-21.2-75.6-52.6-110.5-95.9-17.9-22.3-36.5-46.6-51-74.1-11.9-22.4-20.9-41.4-19.7-64.1.5-9.9,4.5-17.5,12.1-23.1,11.6-8.5,25.6-9.3,39.1-10.2,1.4,0,2.8-.2,4.2-.3,13.4-.9,27,.4,40.3,1.6,3.8.4,7.7.7,11.5,1,10.1.8,20.3,2.2,30.2,3.5,3.3.4,6.6.9,9.9,1.3,22.6,2.9,44.8,9.3,66.2,15.5l6,1.7c13.5,3.9,28.9,8.3,44.4,9.5,22.8,1.7,47-1.1,73.8-8.5,14.1-3.9,29.2-7.8,44.5-8.3,24.6-.9,44.9,6,62.1,21.1,7.3,6.4,23.4,24,15.2,48.6-4.7,14.3-13.2,27.5-26.5,41.6-9,9.5-18.8,18.5-28.2,27.3-10.6,9.8-21.6,19.9-31.5,30.8-22.8,25-32.7,49.2-31.4,76.1.7,13.3,4.7,24.9,12.3,35.2,21.2,28.7,53.2,40.5,78.7,47.5,8.7,2.4,17.7,4.3,26.4,6.2,15,3.3,30.6,6.6,45.1,12.5,23.7,9.5,40.2,25.1,50.5,47.7,5.8,12.8,10.2,26.4,14.5,39.6,1.4,4.3,2.8,8.5,4.2,12.8,7,20.8,17.9,47.3,40.7,67.2,5.4,4.7,10.3,9.8,15.7,15.5,10.1,10.7,12.3,20.6,7.1,32.1-3.1,6.9-6.9,15.1-11.2,23.3-11.3,21-17,45.3-17.6,74.2,0,3.6.4,7.1.8,10.4.4,2.9.7,5.6.8,8.4.3,13.7,2.7,27.9,7.4,43.4,9.1,30.1,28.7,53.6,59.7,71.7h6.1c-33-18-53.6-41.8-62.9-72.6-4.6-15.3-7-29.2-7.2-42.6,0-2.9-.4-5.9-.8-8.7-.4-3.3-.8-6.7-.8-10,.6-28.4,6.2-52.2,17.2-72.8,4.4-8.3,8.2-16.5,11.3-23.4,5.7-12.7,3.4-23.7-7.7-35.4-5.4-5.8-10.4-10.9-15.9-15.7-22.2-19.4-32.9-45.4-39.8-65.9-1.4-4.2-2.8-8.5-4.2-12.7-4.3-13.2-8.7-26.9-14.6-39.9-10.6-23.3-27.7-39.5-52.1-49.2-14.8-5.9-30.5-9.3-45.6-12.6-8.6-1.9-17.6-3.8-26.2-6.2-26.6-7.3-56.5-18.6-77.1-46.4-7.3-9.8-11.1-20.8-11.7-33.6-1.3-26.1,8.4-49.5,30.6-73.9,9.8-10.8,20.7-20.8,31.3-30.6,9.5-8.8,19.3-17.8,28.4-27.4,13.6-14.5,22.3-28.1,27.2-42.8,8.7-26.3-8.3-45-16.1-51.8-17.5-15.4-39.1-22.8-64.2-21.9-15.7.6-30.9,4.5-45.2,8.5-26.4,7.3-50.2,10.1-72.7,8.4-15.2-1.1-30.4-5.5-43.8-9.3l-6-1.7c-21.5-6.2-43.8-12.7-66.7-15.6-3.3-.4-6.6-.9-9.9-1.3-9.9-1.3-20.1-2.7-30.3-3.5-3.8-.3-7.6-.7-11.5-1-13.3-1.3-27.1-2.5-40.7-1.6-1.4,0-2.8.2-4.2.3-14,.9-28.4,1.8-40.7,10.8-8.4,6.2-12.8,14.5-13.3,25.3-1.2,23.5,7.9,42.8,20.1,65.7,14.7,27.6,33.3,52.2,51.3,74.5Z"/>
      <path class="st1" d="M1469.7,307.8c6.1,5.3,12.8,9.9,19.4,14.3,5.9,3.9,11.9,8,17.4,12.6,10.1,8.4,16.7,20,19.7,34.6,2.7,13.1.6,25.6-1.6,38.7-.4,2.7-.9,5.3-1.3,8-1.3,8.5-2.5,17.7-3.6,27.3-2.2,19.4-3.1,39.2-4,58.4-.4,8.6-.8,17.4-1.3,26.1-.6,10.5,0,21,.5,31.1.3,5.7.6,11.6.7,17.4.2,13.8,2.9,27.7,5.5,41.3.5,2.5,1,5,1.4,7.4,3.4,18.1,8.4,36.9,16.2,61,11.9,36.9,32.4,65.2,62.4,86.5,23.5,16.7,37.5,39.9,41.7,69,2.6,18,3.8,36.7,4.8,53.1,1.5,23.6,2.6,48.4,3.1,73.5.5,24.1-3.3,46.6-11.4,66.9-8.4,21.2-18.1,43.5-31.7,63.9h1.8c13.4-20.3,22.9-42.4,31.3-63.3,8.1-20.5,12-43.2,11.5-67.5-.5-25.2-1.5-49.9-3.1-73.6-1.1-16.5-2.3-35.2-4.8-53.3-4.2-29.5-18.4-53-42.3-70-29.8-21.2-50-49.2-61.8-85.8-7.8-24-12.8-42.8-16.1-60.8-.5-2.5-.9-5-1.4-7.4-2.6-13.5-5.3-27.4-5.5-41-.1-5.8-.4-11.8-.7-17.5-.5-10.1-1.1-20.6-.5-31,.5-8.7.9-17.6,1.3-26.1.9-19.1,1.8-38.9,4-58.3,1.1-9.6,2.3-18.8,3.6-27.3.4-2.7.9-5.3,1.3-8,2.1-12.7,4.3-25.8,1.6-39.2-3-14.9-9.8-26.8-20.2-35.4-5.5-4.6-11.6-8.7-17.5-12.7-6.5-4.4-13.3-8.9-19.2-14.2-22.8-19.9-40.2-38.1-51.1-62.2-11.5-25.6-5.7-45.7,17.2-59.9,13-8,28.7-9.9,43.6-10.8,3.9-.2,7.9-.6,11.7-.9,5.7-.5,11.6-1.1,17.4-1.2,7.7-.1,16.2-1.2,24.5-3.1,24-5.5,46.8-16.7,69.7-34.2,12.8-9.8,25.3-20.3,37.4-30.5,5.1-4.3,10.1-8.5,15.2-12.8,9-7.4,17.4-10.7,25.1-9.8,7.4.9,14.5,5.8,21,14.5,12.5,16.8,23.4,34.3,33.2,50.7l1.5,2.5c7.2,12,14.7,24.5,24.4,35.2,13.5,15,31.1,24.3,48.2,33.3,2.7,1.4,5.4,2.8,8,4.2,21.6,11.6,38,23.3,51.6,36.9,21.3,21.2,38.7,47.5,53.3,80.3,5.1,11.4,6.3,23.1,3.5,34.7-1.8,7.6-4.5,15.1-7.1,22.3-2,5.7-4.1,11.5-5.8,17.5-6.1,21.5-6.1,43.9-.1,68.5,2.7,11.1,6.4,22.1,10,32.8,2.3,6.9,4.8,14.1,6.9,21.2,3.5,11.9,5.3,22,5.5,31.9.4,18.5-1.9,37-4,55l-.5,4.4c-1.9,16.3-.9,33.8,3.1,53.3,3,14.5,6.4,33.7,6.2,53.9-.1,11.4-2.9,22.8-8.8,35.7-8,17.5-21,31.6-33.9,44.1-4.5,4.4-9.1,8.7-13.5,12.9-13.3,12.6-27,25.6-39,39.8-23.1,27.5-42,59.4-56,94.8-9.4,23.7-18.8,51.5-11.3,81,6.2,24.5,20.3,41.3,42.9,51.5,4.8,2.2,9.7,3.7,14.7,4.8h8.2c-7.5-1.1-15-2.9-22.2-6.2-22.2-9.9-35.9-26.5-42.1-50.5-7.4-29,1.9-56.5,11.2-80,13.9-35.3,32.7-67,55.7-94.4,11.9-14.2,25.6-27.1,38.8-39.7,4.5-4.2,9.1-8.6,13.6-13,13-12.7,26.2-26.8,34.2-44.6,6-13.1,8.8-24.7,8.9-36.3.2-20.3-3.2-39.6-6.2-54.2-4-19.4-5-36.7-3.1-52.9l.5-4.4c2.2-18,4.4-36.6,4-55.2-.2-10-1.9-20.3-5.5-32.3-2.1-7.1-4.5-14.3-6.9-21.2-3.6-10.6-7.3-21.5-10-32.6-5.9-24.4-5.9-46.5.1-67.8,1.7-5.9,3.8-11.7,5.8-17.4,2.6-7.3,5.3-14.8,7.1-22.5,2.8-11.9,1.6-23.9-3.6-35.6-14.7-33-32.2-59.5-53.6-80.8-13.7-13.6-30.2-25.4-52-37.1-2.7-1.4-5.3-2.8-8-4.2-17-8.9-34.5-18.1-47.8-33-9.6-10.7-17-23-24.2-35l-1.5-2.5c-9.9-16.4-20.8-33.9-33.3-50.8-6.7-9.1-14.2-14.2-22-15.1-8.1-1-17,2.4-26.3,10.2-5.1,4.2-10.2,8.5-15.2,12.8-12.1,10.2-24.5,20.7-37.3,30.4-22.7,17.3-45.4,28.4-69.2,33.9-8.2,1.9-16.6,3-24.2,3.1-5.9,0-11.8.6-17.5,1.2-3.8.4-7.8.7-11.6.9-15.2.9-31,2.8-44.3,11-23.3,14.4-29.5,35.8-17.8,61.8,11.6,25.8,31.6,45.4,51.5,62.7Z"/>
      <path class="st1" d="M505.6,415.7c15.3,22.8,33.7,43.4,52.8,64.3,21.3,23.3,48.1,42.3,84.5,59.6,1.8.8,3.5,1.7,5.3,2.5,16.2,7.7,32.9,15.6,47.4,27,10.1,7.9,19.6,16.1,25,27.9,2.4,5.2,3.6,10.9,3.8,16.9,0,3.9,0,7.8,0,11.6,0,5.7-.2,11.6.2,17.3,1.7,23.1,8.1,40.7,20.4,55.3,5.8,6.9,12.3,13.3,18.5,19.6,3.6,3.5,7.2,7.2,10.7,10.9,18.3,19.3,28.9,40.3,32.4,64.5,3.5,23.7-1.6,45.8-7.7,66.1-2.1,7-4.4,14-6.6,20.9-4.4,13.6-8.9,27.6-12.1,41.8-4.8,21.7-2,38.5,8.7,53.1,9.1,12.3,23.1,16.4,34.4,19.7,8.4,2.5,17.1,4.5,25.5,6.5,10.6,2.5,21.5,5,31.9,8.5,43.4,14.3,72.2,31.9,93.1,57,7.7,9.2,12,19.9,13.1,32.3h1.5c-1.1-12.8-5.5-23.8-13.4-33.3-21.1-25.4-50.1-43.2-93.8-57.5-10.5-3.5-21.5-6-32.1-8.5-8.4-2-17-4-25.4-6.5-14.1-4.1-25.5-8.1-33.6-19.2-10.4-14.2-13.1-30.7-8.5-51.9,3.1-14.2,7.6-28.2,12-41.7,2.2-6.8,4.5-13.9,6.6-20.9,6.1-20.5,11.2-42.8,7.7-66.8-3.6-24.4-14.3-45.8-32.8-65.3-3.5-3.7-7.2-7.4-10.8-10.9-6.2-6.2-12.7-12.6-18.4-19.5-12.1-14.4-18.4-31.6-20.1-54.4-.4-5.7-.3-11.6-.2-17.2,0-3.8.1-7.8,0-11.7-.1-6.3-1.5-12.2-3.9-17.5-5.5-12.1-15.2-20.4-25.4-28.5-14.6-11.5-31.4-19.4-47.7-27.2-1.8-.8-3.5-1.7-5.3-2.5-36.2-17.3-62.9-36.2-84.1-59.3-19-20.8-37.3-41.4-52.6-64.1-13.7-20.4-25.4-39.3-28.5-63-2-15.3,4.2-27.9,17.2-34.5,11-5.6,23.2-6.5,35-7.5h1c10.2-.9,20.6.5,30.6,1.8,2.6.3,5.2.7,7.8,1,12.3,1.4,23.5,3.5,34.5,6.4,16.1,4.2,32.1,9.8,47.6,15.2,10.4,3.6,21.2,7.4,31.9,10.7,13.9,4.3,28,5.8,41.2,6.8,6.6.5,13.4,0,19.9-.7,1.8-.2,3.6-.3,5.5-.5,9.2-.7,18.5-2,27.5-3.9l1.1-.2c15.5-3.2,31.5-6.6,47.6-5.5,16.1,1.1,26.7,6.6,33.4,17.5,8.6,14,4.9,26.7-3.3,41.5-9.8,17.5-23.9,32-37.6,46-3.7,3.8-7.5,7.7-11.2,11.6-16.7,17.7-29.6,36.5-39.4,57.5-9.2,19.7-13.2,36-12.9,52.8.2,10.9,3.7,20,10.8,27.8,16.3,18,37.5,31.6,68.7,44,17.6,7,36.4,10.9,54.5,14.8,10.4,2.2,21.1,4.4,31.4,7.2,27.6,7.4,46.9,20.2,59.2,38.9,9.9,15.2,15.4,32.9,19.8,49.7,1.4,5.2,2.7,10.4,4,15.6,5.1,20,10.3,40.7,17.9,60.5,7.7,19.9,11,38.9,10.1,58.3-.2,4.3-.4,8.5-.7,12.8-.9,15.2-1.8,31-.3,46.8.7,7.8,1.4,15.8,2,23.5,1.3,16.4,2.7,33.4,5,50,2.7,19.8,7.9,34.8,16.5,47.3,8.8,12.8,20.2,23.9,35,34.1h2.7c-15.5-10.4-27.3-21.8-36.4-35-8.5-12.3-13.7-27.1-16.3-46.6-2.2-16.6-3.6-33.5-4.9-49.9-.6-7.7-1.3-15.7-2-23.5-1.5-15.7-.5-31.4.3-46.6.2-4.3.5-8.5.7-12.8.9-19.6-2.4-38.9-10.2-58.9-7.6-19.7-12.8-40.3-17.9-60.3-1.3-5.2-2.6-10.4-4-15.6-4.4-17-9.9-34.8-20-50.2-12.5-19.1-32.2-32-60.1-39.6-10.4-2.8-21.1-5.1-31.5-7.2-18.1-3.8-36.7-7.7-54.2-14.7-31-12.3-52-25.8-68.2-43.6-6.8-7.5-10.2-16.3-10.4-26.8-.3-16.6,3.7-32.7,12.7-52.1,9.7-20.8,22.5-39.5,39.1-57.1,3.7-3.9,7.5-7.8,11.2-11.6,13.8-14.1,28-28.6,37.9-46.3,7.3-13.2,12.8-27.6,3.3-43-7-11.3-17.9-17.1-34.5-18.2-16.3-1.1-32.4,2.3-48,5.5l-1.1.2c-9,1.9-18.2,3.2-27.4,3.9-1.8.1-3.7.3-5.5.5-6.4.6-13.1,1.2-19.6.7-13.1-1-27-2.5-40.8-6.8-10.7-3.3-21.4-7-31.8-10.7-15.5-5.4-31.5-11-47.7-15.2-11-2.9-22.4-5-34.7-6.4-2.6-.3-5.2-.6-7.8-1-10.1-1.3-20.6-2.7-30.9-1.9h-1c-11.9,1-24.3,2-35.5,7.7-13.6,6.9-20.2,20-18,36,3.2,24,14.9,43,28.8,63.6Z"/>
      <g>
        <path class="st1" d="M456.4,1099.1h3.8c15.2-6.2,30.3-8,46-5.8,8.4,1.2,16.4,3.1,24.1,5.8h4.3c-8.9-3.4-18.2-5.9-28.2-7.3-17.1-2.4-33.4,0-50,7.3Z"/>
        <path class="st1" d="M406.3,300.8c1.2,8.2,2.4,16.6,4.8,24.7,7.2,24.1,20.2,45.8,32.9,66.7l3.3,5.5c18.8,31.2,36.9,57.3,55.4,79.7,26.5,32,55.4,65.3,92.8,88.8,16.9,10.6,31.1,23,42.2,36.7,12.4,15.3,17.1,34.6,21.7,53.3l.6,2.6c4.5,18.5,10.1,38.1,23.3,55.3,10.1,13.2,22.6,23.4,33.5,32l.2.2c11.6,9.1,23.6,18.5,32.4,30.4,7.5,10.2,11.9,21.8,12.9,34.6,2.1,27.9-7.7,52.2-17.6,72.3-9.9,20.1-21.9,47.1-27.1,77.7-1.6,9.5-2.4,19.1-3.2,28.4-.6,7.2-1.2,14.6-2.2,21.8-.5,3.4.3,8.1,1.2,12.7,2.7,14.1,15,24.5,30.5,25.8,16.8,1.4,33.6-.4,49.8-2.2,4.2-.5,8.3-.9,12.5-1.3,36.6-3.6,65.3.9,90.2,14.3,18.2,9.8,30.4,22.7,36.6,38.6h1.6c-6.2-16.5-18.8-29.9-37.5-40-25.1-13.5-54.1-18.1-91-14.5-4.2.4-8.3.9-12.5,1.3-16.2,1.8-32.9,3.7-49.5,2.2-14.8-1.3-26.6-11.1-29.2-24.6-.9-4.4-1.6-9-1.2-12.2,1-7.3,1.6-14.7,2.2-21.9.8-9.3,1.6-18.9,3.2-28.3,5.1-30.4,17.1-57.2,27-77.2,10-20.2,19.9-44.8,17.7-73.1-1-13.1-5.4-25-13.1-35.4-8.9-12-21-21.5-32.7-30.7l-.2-.2c-10.8-8.5-23.2-18.6-33.3-31.7-13.1-17-18.5-36.3-23-54.7l-.6-2.6c-4.6-18.8-9.3-38.2-21.9-53.8-11.2-13.8-25.5-26.3-42.5-37-37.2-23.4-66.1-56.6-92.5-88.5-18.5-22.4-36.6-48.4-55.3-79.5l-3.3-5.5c-12.6-20.9-25.6-42.4-32.7-66.4-2.4-7.9-3.6-16.4-4.8-24.5l-.5-3.5c-1.3-8.7-.2-16.8,3.6-26.3,3.1-7.6,10-10.3,15.2-11.1,12.5-2,25.3-.2,37.6,1.7h.6c2.9.5,5.9,1,8.8,1.4,10.6,1.6,21.5,3.2,32.3,4.3,7.9.8,15.9,1.5,23.7,2.2,5.7.5,11.5,1,17.2,1.5,7.6.7,15.3,1.3,22.8,1.9,13,1,26.4,2,39.5,3.8,3.8.5,7.6.9,11.4,1.3,6.1.6,12.4,1.3,18.5,2.4,7.9,1.4,15.9,3.1,23.7,4.6,14.6,3,29.7,6,44.9,8,13.9,1.8,28.6,1.6,45.1-.6,11-1.5,22.1-3.9,32.7-6.2,10.9-2.4,22.2-4.8,33.4-6.3,22.6-2.9,41.1-1.4,58,4.8,19.9,7.3,36.9,18.4,50.7,32.9,22.4,23.8,25.6,46.1,10.2,72.4-8.5,14.6-20.3,26.5-32.7,38.4-9.5,9.1-19.9,17.4-30,25.4-8.8,7-17.8,14.2-26.3,21.9-11.2,10.3-25,24.6-31.9,43.7-6.9,19-5.5,37.3,3.8,52.9,12.7,21.2,33.1,35.3,64.1,44.3,11.6,3.4,23.7,5.7,35.3,8,11,2.2,22.3,4.4,33.2,7.5,29.2,8.2,48.3,23.2,60.4,47.3,5.5,11.1,9.5,22.9,13.3,34.3,2.2,6.5,4.4,13.2,6.9,19.7,6.6,17.1,13.6,33.6,26.1,47.2,19.8,21.4,46.1,28,71.3,33,11.2,2.2,24.2,5,36,11,6.4,3.3,10.1,6.9,11.2,11.1,1.1,4.2-.3,9.2-4.3,15.1-2.7,3.9-6.3,6.6-10.1,9.4-1,.7-2,1.5-3.1,2.3-6.7,5.1-14.1,9.6-21.2,13.9-8.6,5.2-17.6,10.6-25.4,17.3-17.8,15.1-28.7,31.6-33.3,50.5-4.4,17.8-5.5,34.5-3.4,51.2,2.9,22.8,10,42,21.8,58.9,10.9,15.6,26.8,28.1,49.9,39.2,4.3,2.1,8.7,4,13.1,6h3.8c-5.4-2.3-10.8-4.8-16.1-7.3-22.9-11-38.5-23.3-49.3-38.7-11.6-16.6-18.7-35.7-21.5-58.2-2.1-16.5-1-33,3.4-50.6,4.6-18.8,15.1-34.6,32.8-49.7,7.8-6.6,16.7-12,25.2-17.1,7.2-4.3,14.6-8.8,21.3-14,1-.8,2-1.5,3-2.2,3.8-2.7,7.7-5.6,10.5-9.7,4.3-6.3,5.8-11.7,4.6-16.3-1.2-4.7-5.1-8.6-12-12.1-12-6.1-25.1-8.9-36.4-11.2-25-4.9-51-11.5-70.5-32.5-12.4-13.4-19.3-29.7-25.8-46.7-2.5-6.5-4.7-13.2-6.9-19.7-3.8-11.5-7.8-23.3-13.3-34.5-12.1-24.2-32.2-39.9-61.3-48.1-11-3.1-22.4-5.3-33.4-7.5-11.6-2.3-23.6-4.7-35.2-8-30.6-8.9-50.7-22.7-63.2-43.6-9.1-15.2-10.4-33-3.7-51.6,5.3-14.7,15-27.9,31.5-43.1,8.4-7.7,17.4-14.9,26.2-21.8,10.1-8,20.6-16.4,30.1-25.5,12.4-12,24.3-23.9,33-38.7,15.7-27,12.5-49.8-10.4-74.2-13.9-14.7-31.1-25.9-51.2-33.3-17.1-6.3-35.8-7.8-58.7-4.9-11.3,1.5-22.6,3.9-33.5,6.3-10.7,2.3-21.7,4.7-32.6,6.1-16.4,2.2-31,2.4-44.7.6-15.1-1.9-30.2-5-44.8-8-7.8-1.6-15.8-3.2-23.7-4.7-6.1-1.1-12.4-1.8-18.6-2.4-3.7-.4-7.6-.8-11.3-1.3-13.2-1.7-26.6-2.8-39.5-3.8-7.5-.6-15.2-1.2-22.8-1.9-5.7-.5-11.4-1-17.2-1.5-7.8-.7-15.8-1.4-23.7-2.2-10.7-1.1-21.7-2.7-32.2-4.3-2.9-.4-5.9-.9-8.8-1.3h-.6c-12.5-1.9-25.3-3.8-38.1-1.7-8.1,1.3-13.7,5.5-16.3,12-3.9,9.7-5,18.1-3.7,27.1l.5,3.5Z"/>
      </g>
      <g>
        <path class="st1" d="M1651.9-19.1c-9.9,12.5-20.1,25.4-31,37.4-23.7,26.4-50.5,50.3-82,73.2-20.6,15-44.9,24.5-74.4,29.1-4.9.8-10,1.5-14.8,2.2-13.9,1.9-28.2,4-42,7.7-18.8,5.1-35.3,14.5-49,22.9-10.4,6.5-22.6,13.6-36.1,16.9-11.9,2.9-25.1,2.7-41.4-.6-7.4-1.5-14.9-3.4-22.2-5.3-12.5-3.2-25.5-6.6-38.5-7.7-20.1-1.8-39-.6-56.2,3.4-14.2,3.4-26.1,5.5-38.4,5.5-22-.1-41.1-9.3-56.7-27.2-5.2-6-10.4-12.2-15.4-18.2-9.5-11.4-19.3-23.2-29.8-34-10.3-10.6-23.4-24.8-33.7-41.4-9.7-15.6-11.9-29.3-7.1-43.2,3.5-10,10.4-16.3,18.1-20.8h-2.9c-7.1,4.5-13.3,10.8-16.6,20.3-5,14.3-2.7,28.4,7.3,44.4,10.3,16.7,23.5,31,33.9,41.6,10.5,10.8,20.3,22.5,29.7,33.9,5,6,10.2,12.2,15.4,18.2,15.9,18.3,35.4,27.6,57.8,27.8.2,0,.3,0,.5,0,12.3,0,24.2-2.2,38.2-5.6,17-4,35.8-5.2,55.7-3.4,13,1.2,25.8,4.5,38.3,7.7,7.3,1.9,14.8,3.8,22.3,5.3,16.5,3.3,29.9,3.5,42,.5,13.7-3.3,26-10.5,36.5-17.1,13.5-8.4,29.9-17.7,48.5-22.7,13.7-3.7,28-5.7,41.8-7.7,4.9-.7,9.9-1.4,14.8-2.2,29.7-4.6,54.3-14.3,75.1-29.4,31.5-23,58.4-47,82.2-73.4,11-12.2,21.3-25.2,31.2-37.7.2-.2.4-.5.6-.7h-1.9Z"/>
        <path class="st1" d="M2078.2,113.6c-11.7-12.2-24.7-23.1-37.4-33.7-11.4-9.4-19.4-18.3-25.1-27.9-11-18.3-9.7-38.3-7.2-59,.5-4,1.1-8.1,1.8-12.1h-1.5c-.7,4-1.3,8-1.8,11.9-2.6,20.9-3.9,41.2,7.4,59.9,5.9,9.7,14,18.7,25.5,28.3,13.1,10.9,26.5,22,38.4,34.6v-2.1Z"/>
        <path class="st1" d="M2078.2,278c-14.1,13-32.8,20.6-58.5,24.1-18.5,2.5-33.2,1.9-46.1-2-21.2-6.4-36.6-22-47.6-34.8-3.4-4-6.8-8.1-10.2-12.2-7.9-9.5-16.1-19.2-24.7-28.3-18.9-19.8-38.6-38.4-58.9-57.3-19.5-18.2-36.6-40-50.7-64.9-10.9-19.1-15.8-39.7-14.7-61.2,1-18.6,4.3-37,7.4-54.9l.8-4.4c0-.4.1-.8.2-1.2h-1.5c0,.3,0,.6-.1.9l-.8,4.4c-3.2,17.9-6.5,36.4-7.5,55.1-1.1,21.8,3.9,42.7,14.9,62,14.2,25,31.4,47,51,65.3,20.3,18.9,40,37.5,58.9,57.2,8.6,9,16.8,18.8,24.6,28.2,3.4,4.1,6.8,8.1,10.2,12.2,11.1,13,26.7,28.8,48.3,35.3,8,2.4,16.5,3.6,26.2,3.6s13.1-.5,20.5-1.5c25.1-3.4,44-11,58.3-23.6v-1.9Z"/>
      </g>
      <g>
        <path class="st1" d="M1686.9-19.1c-8,9.3-15.7,19-23.2,28.3-8,10-16.2,20.4-24.8,30.2-17.3,20-40.7,45.8-68.6,67.8-20.7,16.3-42,26.9-65,32.3-12.5,2.9-25.4,4.7-37.8,6.4-8.8,1.2-17.9,2.5-26.9,4.1-17,3.1-32,9.4-45.9,19.1-8.4,5.8-15.4,13.2-22.3,20.4-3.5,3.7-7.1,7.5-10.9,11-9.5,9-19.6,13-31,12.2-12-.8-23.6-4.4-34.8-8-3-1-6.1-1.9-9.1-2.8l-5.5-1.6c-19.6-5.9-39.9-11.9-60.8-14-15.5-1.6-30.8.2-49,3.2-4.5.7-9,1.6-13.4,2.5-15,2.9-30.4,5.9-46.3,3.8-17-2.3-30.5-7.2-42.2-15.6-14.9-10.6-25.1-25.5-34.9-40-13.2-19.3-29.9-37.6-52.6-57.6-29.2-25.8-49.9-50.1-55.4-85.1-1-6.1-1.1-11.6-.5-16.5h-1.5c-.6,5.1-.5,10.7.5,16.8,5.7,35.4,26.5,60,55.9,86,22.6,19.9,39.2,38.2,52.3,57.3,9.9,14.5,20.2,29.6,35.3,40.3,12,8.5,25.6,13.6,42.9,15.9,16.2,2.2,31.7-.9,46.8-3.8,4.4-.9,8.9-1.7,13.3-2.5,18.1-3,33.3-4.7,48.6-3.2,20.7,2.1,41,8.1,60.5,13.9l5.5,1.6c3,.9,6.1,1.9,9.1,2.8,11.3,3.6,23,7.2,35.2,8,11.7.8,22.3-3.4,32.1-12.6,3.8-3.6,7.4-7.4,10.9-11,6.8-7.1,13.8-14.4,22-20.2,13.7-9.6,28.5-15.7,45.3-18.8,8.9-1.6,18-2.9,26.8-4.1,12.5-1.7,25.4-3.5,37.9-6.4,23.2-5.4,44.6-16.1,65.5-32.6,27.9-22,51.4-47.9,68.8-68,8.5-9.9,16.8-20.2,24.8-30.3,7.7-9.7,15.7-19.7,24-29.3h-2Z"/>
        <path class="st1" d="M2078.2,322.9c-2.1.5-4.3,1-6.5,1.2-4,.5-8.1,1-12.1,1.6-7.6,1-15.6,2-23.4,2.9-4,.4-8,.9-11.8,1.4-13.8,1.7-28.1,3.5-42.3,1.8-8.4-1.1-16.3-3.6-24.1-7.9-18.1-9.9-30.7-25.9-42.9-41.4l-1.7-2.2c-24.3-30.8-48.8-55-74.9-73.9-16.7-12-35.6-25.7-49.7-44.1-19.7-25.5-33.8-49.8-43.2-74.2-6.7-17.5-8.9-37.1-6.7-59.9.5-4.9,1.2-9.9,2-14.7,1.4-9.3,2.9-18.8,2.5-28.5,0-1.4-.2-2.8-.5-4.1h-1.6c.3,1.4.5,2.8.6,4.2.4,9.5-1.1,19-2.5,28.2-.7,4.8-1.5,9.8-2,14.8-2.3,23,0,42.8,6.8,60.6,9.5,24.5,23.7,48.9,43.4,74.5,14.3,18.6,33.3,32.3,50.1,44.4,26,18.8,50.4,42.8,74.6,73.6l1.7,2.2c12.3,15.6,25,31.8,43.3,41.8,8,4.4,16,7,24.6,8.1,4.2.5,8.5.7,12.7.7,10.2,0,20.2-1.3,30.1-2.5,3.9-.5,7.9-1,11.8-1.4,7.8-.8,15.7-1.9,23.4-2.9,4-.5,8.1-1.1,12.1-1.6,2.2-.3,4.3-.7,6.3-1.2v-1.6Z"/>
      </g>
      <g>
        <path class="st1" d="M1597.2-19.1c-6.2,6.2-12.8,12.1-19.9,17.5-27.9,21.2-57.7,39.4-88.7,54-21.2,10-44.9,15.7-74.5,18-2,.2-3.9.3-5.9.4-8.7.6-17.7,1.3-26.4,2.8-15.8,2.9-31.5,6.7-46.6,11.4-12.5,3.9-22.4,5.7-32,5.8-12.7.2-24.2-5-32.2-14.7-8.5-10.4-11.7-24.1-8.7-37.7,4-18.2,14.8-32.5,34.1-45.1,7-4.6,14.4-8.6,21.8-12.4h-3.3c-6.6,3.5-13.1,7.1-19.3,11.2-19.6,12.8-30.7,27.4-34.8,46-3.1,14.1.2,28.3,9,39,8.3,10,20.2,15.5,33.3,15.3,9.7-.1,19.8-2,32.4-5.9,15.1-4.7,30.8-8.5,46.5-11.4,8.6-1.6,17.6-2.2,26.3-2.8,2-.1,3.9-.3,5.9-.4,29.8-2.3,53.6-8,75.1-18.1,31.1-14.7,61.1-32.9,89-54.2,7.5-5.7,14.5-12,21-18.7h-2.1Z"/>
        <path class="st1" d="M2022.6,147.1c-11.1-8.7-23.8-14.7-36.1-20.6-5.1-2.4-10.3-4.9-15.3-7.5-14-7.4-21.8-15.9-24.5-27-2.2-9.3-1.7-18.9-.8-27.9,1.4-14,4.2-29.1,8.5-45.9,3.2-12.4,6.6-24.9,9.9-37.2h-1.6c-3.3,12.2-6.7,24.6-9.8,36.9-4.3,16.9-7.1,32-8.6,46.2-.9,9.1-1.5,18.9.8,28.4,2.8,11.5,10.8,20.4,25.3,28,5.1,2.7,10.3,5.1,15.4,7.6,12.2,5.8,24.8,11.8,35.8,20.4,24.4,19.1,33.7,38.2,30.3,62-3.7,25.1-22.4,41.6-48.8,43-19.5,1-36.1-7.8-52.1-27.7-15.7-19.6-26.9-42.2-35.8-61.8-8.1-17.9-20.9-32.2-41.5-46.3-2.1-1.4-4.2-2.8-6.2-4.2-13.2-9-26.9-18.2-37.1-31.4-10.7-13.9-16.5-30-17.7-49-.7-11.3,1.2-22.6,3-33.5.7-4.1,1.4-8.3,1.9-12.5.3-1.9.5-3.9.8-5.8h-1.5c-.2,1.9-.5,3.8-.7,5.6-.6,4.1-1.2,8.4-1.9,12.4-1.8,11-3.7,22.4-3,33.8,1.2,19.3,7.1,35.6,18,49.8,10.3,13.4,24.1,22.7,37.4,31.8,2.1,1.4,4.2,2.8,6.2,4.2,20.3,14,33,28.1,41,45.7,8.9,19.6,20.2,42.3,36,62.1,15.4,19.3,31.5,28.4,50.2,28.4s2.1,0,3.2,0c27.2-1.5,46.5-18.4,50.2-44.3,3.6-24.4-6-43.9-30.8-63.3Z"/>
      </g>
      <path class="st1" d="M1634.8,1099.1h1.6c7.3-16.4,14.9-33.9,21.6-51.6,8.6-22.9,12.4-43.9,11.4-64.4-.3-7.3-.8-14.8-1.3-22-.7-10.5-1.4-21.3-1.7-31.9-.6-22.2-1.2-45.2.8-68,.6-6.9,1-13.9,1.4-20.7.5-9.4,1-19,2.1-28.5,1.7-14.7,6.4-25.8,14.7-34.9,10-10.9,23.4-16.3,36.4-21.5,1.2-.5,2.5-1,3.7-1.5,26.7-10.8,52.2-23.8,75.7-38.5,4.8-3,9.7-6.2,14.4-9.2,13.9-9.1,28.3-18.4,43.8-25.2,14.2-6.2,23.6-4.9,32.3,4.4,14.1,15.1,20.3,33.1,18.9,55.1-1.1,17.9-9.5,31.7-16.8,41.8-9.3,12.9-20.8,24.2-32,35-5.3,5.1-10.7,10.4-15.8,15.8-8.9,9.3-17.4,19.8-25.4,31.3-11.5,16.4-21.7,35.1-33.1,60.4-10.6,23.5-22.6,50.2-29.1,78.4-4.1,18-3.9,34.2.8,49.6,5.8,19.1,15,34.5,27.5,46.1h2.3c-12.9-11.5-22.4-27.1-28.3-46.5-4.6-15.1-4.9-31.1-.8-48.9,6.5-28.1,18.4-54.7,29-78.1,11.4-25.2,21.5-43.8,33-60.1,8-11.4,16.5-21.8,25.3-31.1,5.1-5.4,10.5-10.7,15.8-15.8,11.2-10.9,22.8-22.2,32.2-35.2,7.4-10.2,15.9-24.3,17.1-42.6,1.4-22.4-4.9-40.8-19.3-56.2-11.4-12.2-23.6-9.3-34-4.7-15.6,6.8-30.1,16.2-44,25.3-4.7,3-9.5,6.2-14.3,9.2-23.5,14.7-48.8,27.6-75.5,38.4-1.2.5-2.5,1-3.7,1.5-13.1,5.3-26.7,10.7-36.9,21.9-8.5,9.3-13.3,20.7-15.1,35.7-1.1,9.5-1.6,19.2-2.2,28.6-.4,6.8-.8,13.8-1.4,20.7-2,22.9-1.4,45.9-.8,68.2.3,10.7,1,21.5,1.7,32,.5,7.2,1,14.7,1.3,22,.9,20.3-2.8,41.1-11.3,63.8-6.7,17.9-14.5,35.6-21.8,52.1Z"/>
      <g>
        <path class="st1" d="M19.9,1074.7c-24-8.9-48.8-7-72.8-5.2-3.6.3-7.3.5-10.9.8h-2.1c-18.7,1.4-36.3,2.5-54.5-.2-14.5-2.1-27-7.1-37.7-14.8v1.8c10.7,7.5,23.2,12.3,37.5,14.4,18.4,2.7,36.9,1.5,54.8.3h2.1c3.6-.4,7.3-.6,10.9-.9,23.9-1.8,48.6-3.7,72.2,5.1,14.7,5.4,28.1,13.1,40.3,23h2.4c-12.6-10.5-26.7-18.7-42.1-24.4Z"/>
        <path class="st1" d="M343.2,648.7c-15.6-25.4-39.2-42.2-72.2-51.3-15.5-4.3-30-6.8-44.3-7.8-9.4-.7-19-1.2-28.2-1.7-8.3-.5-16.9-.9-25.3-1.5-31.4-2.1-61.8-11.4-90.4-27.6-22.6-12.8-38-27-48.4-44.5-7.2-12.2-13.1-25.3-18.7-38-.9-1.9-1.7-3.8-2.6-5.8-13.5-30.3-33.7-50.6-61.8-62.2-21.4-8.9-44.8-15.8-73.4-21.7-12.7-2.6-24.9-2.7-36.2-.2v1.4c11.1-2.5,23.1-2.4,35.8.2,28.6,5.9,51.8,12.8,73.2,21.6,27.7,11.5,47.6,31.6,61,61.5.9,1.9,1.7,3.8,2.6,5.7,5.7,12.7,11.5,25.9,18.8,38.1,10.6,17.8,26.1,32.1,49,45.1,28.7,16.3,59.4,25.7,91,27.8,8.4.6,17,1,25.3,1.5,9.3.5,18.8,1,28.2,1.7,14.2,1,28.5,3.5,44,7.8,32.6,8.9,55.9,25.5,71.3,50.6,10.8,17.6,11,40.2.7,56.4-21.4,33.5-50,62.3-85,85.6-2.5,1.6-4.9,3.3-7.4,4.9-9.4,6.1-19.1,12.5-27.8,19.8-8.8,7.5-18.8,18.2-17.9,34.8.8,13.9,7.7,24.7,15.4,35.5,6.5,9.1,14,17.5,21.3,25.7,4.2,4.7,8.5,9.5,12.5,14.3,14.5,17.4,30.3,38.2,35.3,64.6,1.1,5.7,1.1,10.7,0,15.3-3.7,16-10.1,31.8-19.5,48.3-5.8,10.1-10.7,20.8-15.5,31.2-2,4.3-4.1,8.7-6.2,13.1h1.7c2-4.2,4-8.4,5.9-12.5,4.8-10.3,9.8-21,15.5-31.1,9.5-16.7,16-32.6,19.7-48.7,1.1-4.9,1.1-10.1,0-16-5-26.7-21-47.7-35.6-65.3-4.1-4.9-8.4-9.7-12.6-14.4-7.3-8.1-14.8-16.5-21.2-25.5-7.5-10.6-14.4-21.2-15.1-34.7-.9-16,8.8-26.3,17.4-33.6,8.6-7.3,18.3-13.6,27.6-19.7,2.5-1.6,5-3.2,7.4-4.9,35.2-23.4,63.9-52.4,85.5-86,10.6-16.7,10.4-40-.7-58Z"/>
      </g>
      <path class="st1" d="M1280,625.9c3.9,19.7,8.1,39,12.4,58.7,2.7,12.3,4.5,25,6.2,37.3.4,2.7.7,5.4,1.1,8,1.2,8.5,1.8,15.4,2,21.7.7,38,7.8,71.2,21.6,101.7,14.6,32.2,32.2,66,53.9,103.3,12.2,21,18,41.4,17.8,62.4-.2,14.1-1.5,28.3-2.7,42-.5,5-.9,10-1.3,15-.6,6.8.2,13.4,1,19.1.2,1.4.5,2.7.8,3.9h3.1c-.4-1.3-.8-2.7-1-4.3-.8-5.5-1.6-11.9-1-18.4.4-5,.9-10,1.3-14.9,1.3-13.8,2.6-28,2.8-42.2.2-21.6-5.7-42.5-18.2-64-21.6-37.2-39.2-70.9-53.8-103-13.7-30.1-20.6-63-21.3-100.6-.1-6.4-.7-13.4-2-22-.4-2.7-.8-5.4-1.1-8-1.7-12.3-3.5-25.1-6.2-37.5-4.3-19.7-8.5-39-12.4-58.7-.5-2.4-1-4.8-1.5-7.2-3.7-18.3-7.6-37.3-6.9-56.5.8-21.5,9.9-39.8,28-56,6.4-5.7,13.2-11.1,19.9-16.3,9-7.1,18.4-14.4,26.7-22.8,4.9-4.9,9.5-10.3,13.9-15.5,5.5-6.5,11.1-13.2,17.5-18.9,9.2-8.3,18-12.4,26.8-12.4s17.9,4.4,27,13.1c11.1,10.6,16.8,24.5,21.7,37.7,14.2,38.5,20.1,78.9,24.9,117,1.5,11.9,2.7,24.1,3.9,35.9.8,7.7,1.5,15.7,2.4,23.5,1.6,14.6,3.5,30.3,6.3,46.3,6.4,36.3,22.4,68.1,47.8,94.6,6.9,7.2,14.3,13.9,21.5,20.5,7.6,6.9,15.5,14.1,22.6,21.7,16.5,17.5,26.6,39.8,31.2,68,.9,5.7,1.3,11.5,1.8,17.2.4,5.7.9,11.5,1.8,17.2,2.6,16.3.4,32.1-2.5,49.6-3.5,21.2-12.9,42.5-27.8,63.5-11,15.5-21.4,29.1-37.1,38.1-15.7,9-32.4,12.7-51.8,15.4h17.7c12.7-2.6,24.3-6.4,35.5-12.8,16.2-9.3,26.8-23.2,38.1-39,15.2-21.3,24.7-43.1,28.3-64.7,3-17.7,5.2-33.8,2.5-50.5-.9-5.5-1.3-11.3-1.7-16.9-.4-5.7-.9-11.6-1.8-17.4-4.6-28.8-15.1-51.6-31.9-69.6-7.2-7.7-15.1-14.9-22.8-21.9-7.2-6.5-14.6-13.2-21.3-20.3-25.3-26.4-40.6-56.9-47-93.1-2.8-15.9-4.7-31.5-6.3-46.1-.9-7.8-1.7-15.8-2.4-23.5-1.2-11.8-2.4-24-3.9-36-4.9-38.3-10.8-78.9-25.1-117.7-5-13.6-10.8-27.8-22.5-38.9-19.2-18.3-38.1-18.5-57.9-.7-6.5,5.9-12.3,12.6-17.8,19.2-4.4,5.2-8.9,10.5-13.7,15.3-8.2,8.2-17.5,15.5-26.5,22.5-6.7,5.2-13.6,10.7-20,16.4-18.7,16.8-28.2,35.8-29,58.1-.7,19.6,3.2,38.7,6.9,57.2.5,2.4,1,4.8,1.4,7.2Z"/>
      <g>
        <path class="st1" d="M1624-19.1c-17.3,20.2-37.1,39.1-58.8,56.1-18.1,14.2-34.5,26.8-52.6,37.4-18.4,10.8-38.6,17.9-61.7,21.9-7.8,1.3-15.8,2.3-23.5,3.3-17.4,2.2-35.4,4.4-52.5,10.6-10.4,3.8-20.5,8.6-30.3,13.3l-2,1c-9.5,4.5-22.2,10-35.1,12-11.2,1.7-23.1.9-36.4-2.3-9.8-2.4-19.4-5.8-28.7-9.2-8.5-3-17.3-6.2-26.3-8.5-16.2-4.3-30.2-5.4-44-3.3-3.8.6-7.6,1.2-11.3,1.9-7.1,1.3-14.4,2.6-21.6,3-16.2,1-31.5-4.2-45.4-15.3-19.9-16-34.2-29.2-46.2-42.9-5.9-6.7-11.7-14.3-14.2-24.2-3.2-12.6-.4-21,9.8-29.2,11.1-8.8,23.9-11.6,37.5-14.4l3-.6c17-3.7,34.7-4.2,51.8-4.7,3.6-.1,7.3-.2,10.9-.4,18.6-.7,35.8-2.5,51.9-5.4h-20.7c-10,1.2-20.4,2-31.3,2.4-3.6.1-7.3.2-10.9.3-17.2.5-35.1,1-52.4,4.8l-3,.6c-13.3,2.8-27.1,5.8-38.7,15-11.1,8.9-14.4,18.5-10.9,32.3,2.7,10.6,9,18.8,14.9,25.5,12.1,13.8,26.5,27.2,46.6,43.3,14.5,11.6,30.4,16.9,47.4,15.9,7.4-.4,14.8-1.8,21.9-3.1,3.7-.7,7.5-1.3,11.2-1.9,13.4-2,27-.9,42.8,3.3,8.8,2.3,17.6,5.5,26,8.5,9.4,3.3,19.1,6.8,29,9.3,13.5,3.3,26.2,4.2,37.6,2.4,13.3-2,26.2-7.6,35.9-12.2l2-1c9.7-4.6,19.8-9.4,30.1-13.2,16.7-6.1,34.5-8.3,51.8-10.5,7.8-1,15.8-1.9,23.6-3.3,23.5-4,44-11.3,62.7-22.3,18.3-10.7,34.8-23.4,52.9-37.7,22.5-17.7,43-37.4,60.8-58.5h-3.9Z"/>
        <path class="st1" d="M2078.2,227.7c-7.6,20.5-20.9,35.1-39.5,43.4-32.9,14.7-65,9.7-90.3-14.2-12.9-12.1-23.8-26.3-34.4-40-5.1-6.6-10.4-13.5-15.9-20.1-7.8-9.3-18.1-21.5-29.2-32.9-3-3.1-6.1-6.2-9.1-9.3-15.1-15.4-30.7-31.3-44.3-48.5-11.8-15-19.8-31.4-23.9-48.8-2.7-11.7-1.4-24-.2-36l.3-2.5c.9-8.8,2.3-17.6,3.7-26.2.6-3.9,1.2-7.8,1.8-11.7h-3c-.6,3.8-1.1,7.6-1.7,11.3-1.4,8.6-2.8,17.5-3.7,26.4l-.3,2.5c-1.3,12.2-2.6,24.8.2,37,4.1,17.8,12.4,34.6,24.4,50,13.7,17.4,29.4,33.4,44.5,48.8,3,3.1,6.1,6.2,9.1,9.3,11.1,11.4,21.4,23.5,29.1,32.7,5.4,6.5,10.7,13.4,15.9,20,10.7,13.8,21.7,28,34.7,40.3,16.4,15.5,35.5,23.3,55.9,23.3s24.9-2.8,37.7-8.6c17.3-7.7,30.1-20.6,38.3-38.3v-7.9Z"/>
        <path class="st1" d="M1993.4,83.9c9.4,10.3,20.8,18.3,31.8,26.1,4.2,3,8.5,6,12.6,9.1,16.9,12.8,29,26.7,37.2,42.6,1.2,2.3,2.2,4.5,3.2,6.8v-7.2c-.2-.3-.3-.6-.5-1-8.4-16.3-20.9-30.6-38.1-43.6-4.2-3.2-8.5-6.2-12.7-9.2-10.9-7.7-22.1-15.7-31.3-25.7-9.6-10.4-14.6-22.9-15.4-38.2-1.1-21.4,3.3-42.4,8.1-62.7h-3.1c-4.8,20.4-9.1,41.3-8,62.9.8,16,6.1,29.1,16.2,40.1Z"/>
      </g>
      <path class="st1" d="M1692.6,992.8c4.2,17.3,2.6,33.7-5.1,49.9-8.7,18.6-17.1,37.6-25.3,56.4h3.3c8-18.3,16.2-36.9,24.7-55.1,7.9-16.9,9.6-33.9,5.3-51.9-4.7-19.5-7.9-39.6-9.4-59.9-1.9-25.6-.5-48.2,4.4-69.1,8-34.3,21.8-55.7,45-69.4,13.8-8.2,28.3-15.6,42.4-22.8,3.4-1.8,6.9-3.5,10.3-5.3,3.4-1.8,6.8-3.6,10.2-5.4,12.4-6.6,25.2-13.5,39.1-17.2,7.1-1.9,12.6-1.7,16.9.7,6.7,3.8,8.2,11.8,4.3,21.5-5.2,12.7-14.4,22.8-23.4,32.5-3,3.2-6,6.6-8.9,10-17.6,20.7-31.6,44.1-41.8,69.4-2.7,6.7-5.3,13.4-8,20.1-10,25.3-20.4,51.4-32.8,76.1-5.5,11-11.2,22.4-15.2,34.6-4.1,12.5-4.7,23.5-1.9,34.5,5,20.2,13.8,39.3,26.1,56.8h3.7c-12.7-17.7-21.8-37-26.9-57.6-2.6-10.4-2-20.9,1.9-32.9,3.9-11.9,9.5-23.2,15-34.1,12.5-24.9,22.8-51,32.9-76.4,2.7-6.7,5.3-13.4,8-20,10.1-25,24-48.1,41.4-68.5,2.8-3.4,5.9-6.7,8.8-9.9,9.1-9.9,18.5-20.2,23.9-33.4,4.5-11,2.4-20.7-5.6-25.2-5-2.8-11.3-3.2-19.2-1-14.2,3.8-27.2,10.8-39.7,17.5-3.4,1.8-6.8,3.6-10.2,5.4-3.4,1.8-6.9,3.5-10.3,5.3-14.1,7.2-28.7,14.6-42.6,22.9-23.6,14-38.3,36.7-46.4,71.3-4.9,21.3-6.4,44.2-4.4,70,1.5,20.4,4.8,40.8,9.5,60.4Z"/>
      <g>
        <path class="st1" d="M-37.9-19.1c-15.5,6.9-31.8,15.8-46,28.8-7.5,6.9-13.5,15.3-19.4,23.4-1.3,1.8-2.6,3.6-3.9,5.4-1.8,2.5-3.6,5-5.5,7.5-8.5,11.8-17.2,23.9-28.2,33.9-5.8,5.2-11.5,9.6-17.4,13.3v1.7c6.2-3.8,12.3-8.4,18.4-13.9,11.1-10,19.9-22.3,28.4-34.1,1.8-2.5,3.6-5,5.4-7.5,1.3-1.8,2.6-3.6,3.9-5.4,5.8-8.1,11.8-16.4,19.2-23.2,15-13.8,32.5-22.9,48.7-29.9h-3.7Z"/>
        <path class="st1" d="M255.2-19.1c-10.9,12.7-25.8,22.9-45.2,31.1-16.6,6.9-29,12.9-40.4,19.3-20.4,11.5-39.4,25.5-57.7,39l-.5.3c-25.1,18.5-53.9,34.7-90.6,51.2-28,12.5-52.6,31.1-73.1,55.4-15.3,18-31,32.3-48.1,43.5-10,6.6-20.5,12.8-30.6,18.8-8.9,5.3-18.1,10.8-27.1,16.6v1.8c9.2-6,18.6-11.6,27.9-17,10.2-6,20.7-12.3,30.7-18.9,17.2-11.3,33-25.7,48.4-43.8,20.4-24.1,44.8-42.6,72.6-55,36.9-16.5,65.8-32.8,90.9-51.3l.5-.3c18.3-13.5,37.3-27.5,57.6-38.9,11.3-6.4,23.7-12.3,40.2-19.2,20.2-8.4,35.5-19.1,46.6-32.5h-1.9Z"/>
      </g>
      <g>
        <path class="st1" d="M1554.3-19.1c-4.9,2.7-10,5.1-15.2,7.2-19.4,7.8-42.6,15.1-67.2,10.2-6.8-1.4-14-3.2-19.4-9-2.5-2.6-4.4-5.5-5.9-8.4h-1.7c1.6,3.3,3.7,6.5,6.5,9.4,5.7,6.1,13.1,8,20.2,9.5,25.1,5.1,48.5-2.3,68.1-10.3,6.1-2.5,12-5.4,17.7-8.6h-3Z"/>
        <path class="st1" d="M1935.7-19.1c-2.9,9.5-6,18.9-9.5,28.2-4.7,12.7-10.2,26-19,38.1-8.1,11.1-16.9,16.5-27.7,16.9-19.3.7-37.7-18.3-38.6-39.9-.4-9.8-.6-22.6,1.9-35,.5-2.7,1-5.5,1.4-8.3h-1.5c-.4,2.7-.9,5.3-1.4,8-2.5,12.6-2.3,25.5-1.9,35.3.9,22,19.4,41.4,39.1,41.4.4,0,.7,0,1.1,0,11.2-.4,20.6-6.1,28.9-17.5,8.8-12.2,14.4-25.7,19.2-38.4,3.5-9.4,6.7-19,9.6-28.7h-1.6Z"/>
      </g>
      <path class="st1" d="M2078.2,952.9c-6.1,2.4-12.2,5.5-18.6,9.4-17.5,11-29.9,27.3-41.9,43.1-4.6,6.1-8.9,12.6-13.1,18.9-4.4,6.7-9,13.6-14,20-8.2,10.6-18.6,18.3-30.3,22.4-20.7,7.2-43.7,11.6-72.2,13.9-13.4,1.1-29,1.9-43.9-1.2-18.5-3.9-31.7-12.5-40.4-26.3-11.6-18.4-13.4-39.4-5.6-65.9,4.2-14.5,10.4-29.3,18.8-45.3,11.2-21.3,26.2-42.1,47.4-65.4,10.5-11.6,22.2-22.5,33.4-33,11.9-11.1,24.2-22.6,35.2-35,19.7-22.1,29.8-42.5,32.9-66.2,1.3-10.1.5-19.9-.4-29.4-.3-3-.5-6.1-.7-9.1-.4-6.4-1.3-13-2.3-19.4-.6-4.4-1.3-9-1.7-13.5-2.6-24.8,2.5-49.4,7.4-73.2.8-3.7,1.5-7.3,2.2-11,4.4-22,6.4-44.5,8.3-66.2l.7-8.2c.3-3.5.5-7,.7-10.5.1-3,.3-6.1.5-9.1,1.6-19.7,14.7-27.8,27.4-33.1,17.9-7.5,38.4-17,54.8-33.5,5.5-5.5,10.5-11.5,15.2-17.6v-2.5c-5,6.6-10.3,13.1-16.3,19-16.2,16.3-36.6,25.7-54.3,33.1-13.1,5.5-26.7,13.9-28.3,34.4-.2,3.1-.4,6.2-.5,9.2-.2,3.4-.3,7-.7,10.4l-.7,8.2c-1.9,21.7-3.9,44.1-8.3,66.1-.7,3.7-1.5,7.3-2.2,11-4.9,23.9-10.1,48.6-7.5,73.6.5,4.5,1.1,9.1,1.8,13.6.9,6.4,1.8,12.9,2.2,19.3.2,3.1.5,6.2.7,9.2.8,9.4,1.6,19.1.4,29-3,23.3-13,43.5-32.5,65.4-11,12.3-23.2,23.8-35.1,34.9-11.3,10.5-23,21.4-33.5,33.1-21.2,23.4-36.3,44.3-47.6,65.7-8.4,16.1-14.6,31-18.9,45.6-7.9,26.9-6,48.2,5.8,67.1,8.9,14.2,22.4,23,41.4,27,7.9,1.7,15.9,2.2,23.7,2.2s14.1-.5,20.6-1c28.7-2.3,51.7-6.7,72.6-14,11.9-4.1,22.6-12.1,31-22.9,5-6.5,9.6-13.4,14-20.1,4.2-6.3,8.4-12.7,13-18.8,11.9-15.7,24.2-32,41.5-42.8,6.1-3.8,11.9-6.8,17.8-9.1v-1.6Z"/>
      <path class="st1" d="M2078.2,919.1c-17,3.4-32.2,11.7-46.3,25.2-13.3,12.8-24.7,27.5-35.6,41.8-6.3,8.2-12.8,16.7-19.6,24.7-10.1,11.9-19.2,21.2-30.5,27.9-25.8,15.3-53.7,22.7-83,21.8-14.2-.4-26.2-5.1-35.7-13.9-14.1-13.2-18.4-31.1-12.9-54.7,4.3-18.7,12.9-37.3,25.7-55.3,20.8-29.4,46.7-53.8,71.5-75.7,18.5-16.3,37.6-33.2,54.4-52.5,23.4-26.8,32.1-59.7,25.8-97.6-2.2-13.1-3.9-26.5-5.6-39.5l-.3-2c-2-15.3.7-30.8,3.3-45.8,3.1-17.9,8.2-36.6,16.2-58.6,10.1-28.2,22.8-48.4,40-63.8,6.1-5.4,12.4-10.7,18.6-15.8,4.7-3.8,9.4-7.8,14.1-11.8v-2c-5,4.3-10,8.5-15,12.6-6.2,5.1-12.6,10.4-18.6,15.8-17.4,15.5-30.3,36-40.5,64.4-7.9,22.1-13.1,40.8-16.2,58.9-2.6,15.1-5.3,30.7-3.3,46.2l.3,2c1.7,13,3.5,26.4,5.6,39.5,6.2,38-2.1,69.6-25.5,96.4-16.8,19.2-35.8,36.1-54.3,52.4-24.9,22-50.9,46.4-71.8,76-12.8,18.1-21.5,36.9-25.9,55.8-5.6,24.2-1.2,42.5,13.4,56.1,9.7,9.1,22,13.9,36.6,14.3,1.6,0,3.1,0,4.6,0,27.9,0,54.5-7.4,79.2-22.1,11.6-6.9,20.7-16.3,30.9-28.3,6.8-8,13.3-16.5,19.6-24.7,10.9-14.2,22.2-29,35.5-41.7,13.8-13.2,28.7-21.4,45.3-24.8v-1.5Z"/>
      <path class="st1" d="M2078.2,886.2c-3.5,0-6.9,0-10.4,0-17.1.2-32.6,6.3-45.9,18.3-16.2,14.5-27.9,32.7-39.2,50.3-2.2,3.4-4.4,6.9-6.7,10.3-9,13.7-19.7,29.3-33.6,42-16.7,15.2-35.4,24.4-57.5,28.2-12,2-23,.5-32.8-4.5-13.3-6.8-18.1-20.6-14.2-41.1,4.3-22.4,18.2-39.9,32.6-55.5,15.1-16.3,33-30.1,50.3-43.5,2.8-2.2,5.6-4.3,8.4-6.5,4.8-3.8,9.9-7.5,14.7-11.1,18.6-13.9,37.7-28.2,52.4-47.1,15.9-20.4,25.2-43.5,27.8-68.8,1.9-18.7-1-36.8-4.8-56.7-.7-3.7-1.4-7.3-2.2-10.9-3.5-16.8-6.8-32.6-4.2-49.7v-.6c2.2-13.8,4.1-26.8,8-39.9,8.9-29.8,22.7-53.1,42.3-71.1,4.7-4.3,9.6-8.3,14.7-12.1v-3.7c-5.8,4.2-11.5,8.7-16.8,13.6-20,18.4-34.1,42.1-43.2,72.5-4,13.3-6,27-8,40.3v.6c-2.7,17.6.8,34.4,4.1,50.7.8,3.6,1.5,7.2,2.2,10.9,3.7,19.7,6.7,37.5,4.8,55.8-2.5,24.7-11.7,47.3-27.2,67.2-14.4,18.6-33.5,32.8-51.9,46.5-4.9,3.6-9.9,7.4-14.8,11.2-2.8,2.2-5.6,4.3-8.4,6.5-17.4,13.4-35.5,27.3-50.7,43.8-14.7,15.9-29,33.9-33.4,57-4.1,21.6,1.3,36.9,15.8,44.3,7.4,3.8,15.5,5.7,24.1,5.7s7-.3,10.6-.9c22.6-3.8,41.9-13.3,59-28.9,14.1-12.9,25-28.7,34.1-42.6,2.3-3.4,4.5-6.9,6.7-10.3,11.2-17.4,22.7-35.4,38.7-49.7,13-11.6,27.4-17.3,43.9-17.5,3.4,0,6.9,0,10.4,0v-3Z"/>
      <path class="st1" d="M399.9-19.1c-2.9,1.5-5.9,2.9-8.9,4.1-15,6.2-24.6,5.2-31.8-4.1h-1.9c4.7,6.4,10.3,9.5,17.5,9.5s10.4-1.4,16.8-4c3.9-1.6,7.8-3.5,11.5-5.5h-3.2Z"/>
      <path class="st1" d="M-23.7,1090.5c-15.1-.6-30.4.9-45.1,2.4-7.2.7-14.6,1.5-21.9,1.9-18.7,1.2-38-.6-57.3-5.6-3.5-.9-6.9-2-10.1-3.1v1.6c3.1,1.1,6.3,2.1,9.8,3,19.5,5,38.9,6.9,57.8,5.6,7.3-.5,14.8-1.2,22-1.9,14.7-1.5,29.9-3,44.9-2.4,13.7.6,26.3,2.9,37.7,7.1h4.2c-12.6-5.1-26.5-8-41.9-8.6Z"/>
      <path class="st1" d="M30.4,809c-11.1-13.4-26.5-20.1-41.3-25.9-25.4-9.8-39.4-28.6-42.7-57.4-.5-4-.8-8-1.2-11.9-.9-9-1.7-18.2-3.5-27.2-5.7-28.8-21-50.3-46.7-65.6-10.3-6.1-21-11.8-31.3-17.3-6.4-3.4-12.9-6.9-19.3-10.5-.8-.5-1.6-1-2.4-1.4v1.7c.6.3,1.1.7,1.7,1,6.4,3.6,13,7.1,19.3,10.5,10.3,5.5,21,11.2,31.2,17.3,25.3,15.1,40.4,36.2,46,64.6,1.8,9,2.7,18.2,3.5,27.1.4,3.9.8,8,1.2,12,3.4,29.4,17.7,48.6,43.7,58.7,14.6,5.7,29.9,12.3,40.7,25.4,6.5,7.9,8.8,15.3,6.6,21.9-3,9.1-9.3,16.6-18.2,21.6-16.8,9.4-34.7,7.8-51.5,4.7-11.1-2-21.8-6.1-32.1-9.9-10.2-3.8-20.7-7.8-31.7-9.9-15.1-2.9-28.8-5.2-43.6-3.3-5.9.7-11.5,1.5-17,2.5v1.5c5.5-1,11.2-1.8,17.2-2.5,14.6-1.8,28.2.4,43.2,3.3,10.8,2.1,21.3,6,31.4,9.8,10.4,3.9,21.1,7.9,32.3,10,17.1,3.2,35.3,4.8,52.5-4.9,9.1-5.1,15.8-13.1,18.9-22.4,2.3-7.1,0-15-6.9-23.3Z"/>
      <path class="st1" d="M-100.5-19.1c-3.8,2.9-7.5,6-10.9,9.3-6.5,6.3-12.3,13.5-17.9,20.4-3.5,4.3-7.1,8.8-10.8,13-5.8,6.5-11.7,13.1-18.1,19.2v2.1c6.8-6.4,13.1-13.4,19.2-20.3,3.7-4.2,7.3-8.7,10.8-13.1,5.6-6.9,11.3-14.1,17.7-20.3,3.9-3.7,8-7.2,12.4-10.4h-2.5Z"/>
      <path class="st1" d="M2078.2,72.6c-5.5-5.7-11.4-11.5-17.7-17.6-18.3-17.7-26.9-39.6-25.5-65.1.2-3,.4-5.9.7-8.9h-1.5c-.3,2.9-.6,5.9-.7,8.8-1.4,26,7.3,48.3,26,66.3,6.8,6.5,13,12.7,18.8,18.7v-2.2Z"/>
      <path class="st1" d="M-158.2-1c5.5-6.1,10.4-12.3,14.8-18.1h-1.9c-3.9,5.1-8.2,10.5-12.9,15.9V-1Z"/>
      <path class="st1" d="M-117,642.3c-12.7-9.3-27.2-15.7-41.2-21.8v1.6c13.8,6,27.9,12.2,40.3,21.3,25.2,18.5,35,42.6,29.9,73.6-2.4,14.4-6.5,27.1-12.8,38.8-6.9,12.8-17.4,23.2-31.3,30.9-8.4,4.6-17.3,8.4-26.2,11.8v1.6c9.2-3.5,18.3-7.3,26.9-12.1,14.1-7.8,24.8-18.4,31.9-31.5,6.3-11.8,10.6-24.7,12.9-39.3,5.2-31.6-4.8-56.2-30.5-75.1Z"/>
      <path class="st1" d="M2078.2,841.7c-4.8-2.6-8.9-5.3-12.5-9.8-10.1-12.8-9.5-27.5-9-41.7,0-2.5.2-4.9.2-7.4.1-6.1.6-12.4,1.1-18.4.8-10.1,1.7-20.5.7-31-1.5-15.3-4.9-31.2-10.7-50.2-7.5-24.4-9.3-44.6-5.7-63.8,5.4-28.5,17.2-50.9,35.8-68v-2.1c-19.4,17.4-31.7,40.4-37.3,69.7-3.7,19.4-1.9,39.9,5.7,64.5,5.8,18.9,9.2,34.7,10.7,49.9,1,10.4.1,20.7-.7,30.7-.5,6-1,12.3-1.1,18.5,0,2.4-.1,4.9-.2,7.3-.6,14.4-1.1,29.4,9.3,42.7,3.9,4.9,8.5,7.8,13.6,10.6v-1.7Z"/>
      <path class="st1" d="M2078.2,22.9c-7.5-11.9-11.4-23.3-11.9-34.8-.1-2.4-.2-4.8-.2-7.2h-1.5c0,2.5.1,4.9.2,7.3.5,12.4,4.9,24.7,13.4,37.5v-2.8Z"/>
      <path class="st1" d="M-121.5,692.1c-1.7-12-8.4-21.8-19.2-28.6-5.6-3.5-11.4-6.2-17.5-8.3v1.6c5.8,2,11.3,4.7,16.6,8,10.5,6.5,16.9,16,18.5,27.5,1.7,11.9-1.4,23.5-9.3,34.6-7.1,9.9-15.7,18.6-25.9,26v1.9c10.8-7.7,19.8-16.6,27.2-27,8.1-11.4,11.3-23.4,9.5-35.7Z"/>
      <path class="st1" d="M-129.5,163.3c-2-5.1-7.1-8.8-15.4-11.2-4.2-1.3-8.9-1.9-13.3-2v1.5c4.3,0,8.8.7,12.9,2,7.8,2.3,12.6,5.7,14.4,10.4,2,4.9.7,11.3-3.9,19.4-6.4,11.2-15.4,20.2-23.4,27.3v2c8.3-7.2,17.9-16.7,24.7-28.5,4.9-8.5,6.2-15.3,4-20.7Z"/>
      <path class="st1" d="M2078.2,1049.7c-1.8-.8-3.6-1.8-5.3-2.9-10.5-6.8-13.7-14.9-9.9-25.1,3.4-9.1,8.6-16.5,15.2-22.2v-2c-7.2,5.9-12.9,13.9-16.6,23.7-4,10.7-.5,19.7,10.5,26.8,2,1.3,4.1,2.4,6.2,3.3v-1.6Z"/>
      <path class="st1" d="M1725.2,924.5c0,0-.2,0-.3,0-5.9-2.1-8.7-6-8.4-11.7,0-1.9,0-3.9,0-5.9,0-3-.2-6,.2-9,1.3-9.2,4.8-16.4,10.4-21.5l.3-.3c2.1-1.9,4.9-4.5,9.2-2.4,4.4,2.2,6.4,5.1,6.7,9.3.5,7.9-.3,14.4-2.6,19.8-.6,1.4-1.1,2.8-1.7,4.3-2.5,6.7-5.2,13.6-12.7,17.3-.2.1-.5,0-.7,0-.1,0-.3.1-.4.1ZM1733.5,874.4c-2,0-3.5,1.4-5,2.8l-.3.3c-5.5,4.9-8.7,11.7-10,20.6-.4,2.9-.3,5.9-.2,8.8,0,2,.1,4,0,6-.2,5.1,2.1,8.3,7.4,10.2,0,0,0,0,.1,0,0,0,0,0,0,0,7-3.4,9.5-10.1,11.9-16.5.5-1.5,1.1-2.9,1.7-4.3,2.2-5.2,3-11.5,2.5-19.1-.2-3.7-2-6.1-5.9-8.1-.9-.4-1.7-.6-2.4-.6Z"/>
      <path class="st1" d="M-84.3,983.9c-.1,0-.2,0-.4,0-1.8-1-3.8-1.6-5.8-2.2-2.9-.9-5.9-1.8-8.6-4-4.7-3.8-7.2-9.3-6.8-14.6.4-4.6,2.9-8.5,7-10.9,9.5-5.5,27,1.2,31,8,5.5,9.2,3.7,13.1-4,19.3-1.9,1.6-4.1,1.9-6,2.2-2,.3-3.8.6-5.1,2.1-.2.3-.6.3-1,.1-.1,0-.3.1-.4.1ZM-90.3,951.5c-2.9,0-5.6.5-7.8,1.8-3.7,2.1-5.9,5.6-6.3,9.7-.4,4.9,1.9,9.9,6.3,13.3,2.4,2,5.2,2.8,8.1,3.7,2,.6,4.1,1.3,6.1,2.4t0,0c1.7-1.7,3.8-2.1,5.9-2.4,1.9-.3,3.7-.6,5.3-1.9,7.6-6.2,8.3-9.4,3.6-17.4-2.8-4.7-12.7-9.3-21.1-9.3Z"/>
      <path class="st1" d="M1716.4,713.3c-.5,0-.9,0-1.4,0-15.8-.2-27.7-12-28.4-28.1-1-24.2,21.5-61.4,50.9-71.4,5.5-1.8,11.1-3.1,16.5-4.3,3.4-.8,7-1.6,10.4-2.5.2,0,.4,0,.6,0,.2,0,.3-.1.5,0,2.8.5,5.7.9,8.5,1.3,6.3.9,12.9,1.8,19.2,4,11.9,4.1,20.2,11.5,23.3,20.7,3,9.2.9,19.5-6.3,30-7.2,10.5-17.1,19.8-31.1,29-21.9,14.5-41.9,21.3-62.8,21.3ZM1765,608.3c0,0-.1,0-.2,0-3.5.9-7,1.7-10.5,2.5-5.4,1.2-11,2.5-16.3,4.3-28.9,9.8-50.9,46.2-49.9,69.9.6,15.2,12,26.4,26.9,26.7,21.1.3,41.2-6.4,63.3-21,13.8-9.1,23.5-18.2,30.7-28.6,6.9-10.1,9-20,6.1-28.7-2.9-8.8-10.9-15.8-22.4-19.8-6.2-2.1-12.7-3.1-18.9-3.9-2.8-.4-5.7-.8-8.6-1.3,0,0-.2,0-.3,0Z"/>
      <path class="st1" d="M1165.6,725.7c-5.3,0-10.7-.6-16.1-1.8-21.8-4.9-35.9-18.9-39.8-39.4-3.9-20.5.4-36.9,13.2-50,7.1-7.3,15.8-10.6,24.1-13.3.2,0,.4,0,.6,0,.1,0,.2-.1.4-.1,1.2,0,2.5,0,3.7,0,2.7,0,5.4,0,8.1,0,12,.5,23,4.6,31.8,12.1,13.2,11.1,21.3,24.5,24.6,40.8,3.6,17.8-7.5,38-19.7,44.2-9.9,5-20.2,7.5-30.9,7.5ZM1147.6,622.4s-.1,0-.2,0c-8.1,2.7-16.6,5.9-23.5,13-12.4,12.8-16.6,28.7-12.8,48.7,3.8,19.9,17.5,33.4,38.6,38.2,16.1,3.6,31.6,1.8,46-5.6,11.5-5.9,22.3-25.7,18.9-42.6-3.2-16-11.1-29.1-24-40-8.6-7.2-19.2-11.2-30.9-11.7-2.7-.1-5.4,0-8.1,0-1.2,0-2.5,0-3.7,0s-.3,0-.4-.1Z"/>
      <path class="st1" d="M359.9,508.5c-.3,0-.6,0-.9,0-2.5,0-4.9-.6-7.2-1.1-1.3-.3-2.6-.5-3.9-.7-23.7-3.5-42.9-13.6-57-30-6.5-7.5-5.9-19.5,1.3-26.2,5.3-5,11.5-8.3,20.2-10.9.2,0,.4,0,.6,0,.1,0,.2-.1.4-.1,1.9,0,3.8-.1,5.7-.2,4.2-.3,8.5-.5,12.5.5,24.5,6.3,40.2,19.6,46.8,39.5,2.9,8.7,2.2,16.8-1.9,22.2-3.5,4.6-9.2,7-16.6,7ZM312.9,440.9c0,0-.1,0-.2,0-8.4,2.5-14.5,5.7-19.6,10.5-6.6,6.2-7.1,17.2-1.2,24.1,13.9,16.1,32.8,26,56.1,29.5,1.3.2,2.7.5,4,.8,2.2.5,4.5,1,6.9,1,7.3.2,12.9-2,16.2-6.4,3.8-5,4.4-12.6,1.7-20.8-6.4-19.4-21.8-32.3-45.7-38.5-3.8-1-8-.7-12.1-.4-1.9.1-3.9.2-5.8.2s-.3,0-.4-.1Z"/>
      <path class="st1" d="M1614.8,595.9c-2,0-4.1-.2-6.3-.7-15-3.6-24.7-23.1-25.7-35.2-2.2-27.8,3.6-54.8,17.3-80.2,20.4-37.9,33.7-78.6,39.5-120.9,4.1-29.8,24.3-48.2,54.1-49.1,10.3-.3,20.8-1.6,30.8-2.7,2.5-.3,5.1-.6,7.6-.9,1.9-.2,3.8-.2,5.7-.2,4.2,0,8.5,0,12.2-2.3.2-.2.6-.2.8,0,.1,0,.2-.1.4-.1,2.1,0,4.2,0,6.3,0,4.7,0,9.5,0,14.2,0,2.4,0,4.8,0,7.2,0,4.7-.2,9.5-.4,14.3.8,15.5,3.9,26,12,32.1,24.6,5.3,11.1,7.3,23.4,5.9,35.6-.8,6.6-1,13.3-1.2,19.9-.2,5.8-.4,11.8-1,17.8-1.3,12.5-1,26.2.8,40.5,1.5,12,.6,25.2-2.9,41.7-4.4,20.7-16.4,34.4-36.6,42.1-14.2,5.4-29.2,8-43.7,10.6l-4.5.8c-25.2,4.5-47.2,13.2-67.4,26.6-4.1,2.7-8.1,5.6-12,8.4-9.8,7-19.9,14.2-31.3,19.1-5,2.1-10.4,4-16.3,4ZM1736.5,307.4c-1.4,0-2.8,0-4.1.2-2.5.3-5.1.6-7.6.9-10.1,1.2-20.6,2.4-31,2.8-29,.9-48.7,18.8-52.7,47.8-5.8,42.5-19.2,83.4-39.7,121.4-13.5,25.1-19.3,51.8-17.1,79.4.9,11.9,10.7,30.6,24.5,33.8,8,1.9,15.1-.4,21.6-3.2,11.3-4.8,21.3-12,31.1-18.9,3.9-2.8,8-5.7,12.1-8.4,20.4-13.5,42.7-22.3,68-26.8l4.6-.8c14.4-2.6,29.4-5.2,43.4-10.5,19.8-7.5,31.5-20.9,35.7-41,3.4-16.3,4.3-29.4,2.8-41.2-1.8-14.4-2.1-28.2-.8-40.8.6-5.9.8-11.9,1-17.7.2-6.5.4-13.3,1.3-20,1.4-11.9-.5-24-5.7-34.8-5.9-12.2-16-20-31.1-23.8-4.5-1.2-9.3-1-13.8-.8-2.4,0-4.8.2-7.3,0-4.7-.2-9.5-.1-14.2,0-2.1,0-4.2,0-6.3,0s-.3,0-.4-.1c-4.1,2.6-8.6,2.6-13,2.6-.5,0-.9,0-1.4,0Z"/>
      <path class="st1" d="M982.5,1019.9c-10.1,0-19.3-3.9-28.1-7.7l-2.7-1.1c-38.5-16.3-68.6-27.8-97.6-37.4-5-1.7-9.8-3.5-14.2-5.5-18.7-8.4-28.8-23.6-30.1-45.2-.5-8.1,1.5-16.1,3.5-23.9.6-2.3,1.1-4.5,1.6-6.8,1.9-8.6,4.4-17.2,6.8-25.5,4.8-16.6,9.7-33.8,10.4-51.8.5-13.3-.5-27.3-3.1-42.9-2.6-15.8-10-30.2-17.2-44.1-1-1.9-2-3.9-3-5.8-1.1-2.1-2.2-4.2-3.3-6.3-4.7-9-9.5-18.3-12.5-28.2-1.6-5.4-1.3-10.1.8-13.5,1.9-3.2,5.3-5.3,10-6.2.6-.1,1.3-.5,1.9-.9.3-.2.7-.4,1-.6.2-.1.5,0,.7,0,.1,0,.2-.1.4-.1,15.6-.4,31.3,1.4,46.5,3.1,4.5.5,9,1,13.5,1.5,15.3,1.5,31.5,3.4,47.4,8,26.4,7.7,44.4,21.6,54.9,42.6,11.5,23,14,48.1,15.5,69.9.7,10.3,1.2,23.8-1.1,37.7-2.1,12.8-2,25.9-1.8,38.7,0,4.2,0,8.5,0,12.8,0,5.4,1.2,10.6,2.3,15.7v.5c2.2,9.3,5,18.7,7.6,27.7,4.4,15.3,9,31.1,11,47.4,1.5,12.3.5,23.9-2.9,35.5-2.2,7.6-8.5,12.1-17.1,12.3-.3,0-.6,0-1,0ZM807.5,667.8s0,0,0,0c-.3.2-.6.3-.9.5-.7.4-1.5.9-2.4,1.1-4.2.8-7.3,2.7-9,5.5-1.9,3.1-2.1,7.4-.6,12.4,2.9,9.8,7.7,19,12.4,27.9,1.1,2.1,2.2,4.2,3.3,6.4,1,1.9,2,3.8,3,5.8,7.2,14,14.7,28.5,17.4,44.5,2.6,15.7,3.6,29.8,3.1,43.2-.7,18.2-5.7,35.4-10.5,52.1-2.4,8.3-4.9,16.9-6.8,25.4-.5,2.3-1.1,4.6-1.6,6.8-1.9,7.7-3.9,15.7-3.4,23.5,1.3,21,11.1,35.7,29.2,43.9,4.4,2,9.1,3.8,14.1,5.4,29.1,9.6,59.2,21.1,97.8,37.4l2.7,1.1c9,3.8,18.2,7.8,28.4,7.6,8.1-.2,13.7-4.2,15.7-11.2,3.4-11.4,4.3-22.8,2.9-34.9-1.9-16.2-6.5-32-10.9-47.2-2.6-9.1-5.4-18.4-7.5-27.8v-.5c-1.3-5.2-2.5-10.6-2.5-16.1,0-4.2,0-8.6,0-12.8-.1-12.8-.3-26.1,1.9-38.9,1.8-10.7,2.1-22.3,1.1-37.4-1.5-21.7-4-46.7-15.4-69.4-10.3-20.6-27.9-34.3-53.9-41.8-15.8-4.6-31.9-6.4-47.1-8-4.5-.5-9-1-13.5-1.5-15.1-1.7-30.8-3.4-46.3-3.1-.1,0-.3,0-.4-.1Z"/>
      <path class="st1" d="M1160.7,394.6c-5.3,0-10.9-1-16.8-3.1-30.3-10.8-49.1-30.9-55.8-59.7-3.2-13.9,3.4-28.2,16.8-36.3,5-3,10.4-4.2,15.6-5.3,3-.6,6.1-1.3,9.1-2.3.2,0,.5,0,.6,0,.1,0,.2-.1.4-.1h0c8.4,0,16,.2,23.8,1.4,17.8,2.8,29.7,10.4,37.6,23.9,7.3,12.5,6.8,26.1,6.3,39.3v.3c-.6,15.7-7,28.8-17.7,35.9-5.8,3.9-12.6,5.9-19.9,5.9ZM1130.3,289.2s0,0-.1,0c-3,1.1-6.2,1.7-9.3,2.4-5.1,1.1-10.3,2.2-15.2,5.1-12.8,7.7-19.2,21.3-16.1,34.6,6.5,28.3,25,48,54.8,58.6,13.5,4.8,25.7,3.9,35.3-2.6,10.3-6.9,16.5-19.6,17-34.8v-.3c.5-13,1-26.4-6-38.5-7.6-13.1-19.2-20.4-36.5-23.2-7.6-1.2-15.2-1.4-23.5-1.4-.1,0-.3,0-.4-.1Z"/>
      <path class="st1" d="M911.9,949.7c-13.9,0-26.5-4.5-37.3-9.1-16.2-6.9-25.2-20.4-25.3-38,0-8.8,2.6-17.7,5.1-26.4l1.6-5.6c4.2-14.4,8.5-29.3,8.7-44.7.2-16.5-1.4-32.8-4.7-48.3-1.9-8.7-3.4-17.7-5-26.3-1-5.5-2-11.1-3-16.7-2.5-13.2,7.7-28.9,21-32.3,1.5-.4,3.1-.6,4.6-.8,2.8-.3,5.5-.7,7.9-2.2.2-.2.6-.1.8,0,0,0,.2,0,.3,0,3-.5,5.8.1,8.5.7,1.4.3,2.9.6,4.3.8,15.2,1.6,27.5,7,36.6,16,20.6,20.4,26.3,46.2,17.6,78.8-4.3,16-12,30.8-19.5,45.2-1.4,2.7-2.8,5.4-4.2,8.1-3.5,6.9-4.7,14.4-5.3,20.1-1.7,16.4,1.6,32.6,4.8,48.2.8,3.7,1.5,7.3,2.2,11,1.1,5.9,0,11.1-3,15-2.9,3.7-7.4,5.9-12.7,6.3-1.3,0-2.6.1-3.9.1ZM886.2,700.6c-2.7,1.7-5.6,2-8.5,2.4-1.5.2-3,.4-4.4.7-12.6,3.2-22.3,18-19.9,30.6,1.1,5.6,2.1,11.2,3,16.7,1.5,8.6,3.1,17.6,5,26.3,3.3,15.7,4.9,32,4.7,48.7-.2,15.6-4.5,30.6-8.7,45.1l-1.6,5.6c-2.5,8.6-5.1,17.4-5,26,0,17,8.8,30,24.4,36.6,11.6,4.9,25.4,9.8,40.5,8.8,4.9-.3,9-2.3,11.6-5.7,2.8-3.6,3.7-8.4,2.7-13.8-.7-3.7-1.5-7.3-2.2-11-3.3-15.8-6.6-32-4.9-48.7.6-5.9,1.8-13.5,5.4-20.6,1.4-2.7,2.8-5.4,4.2-8.1,7.4-14.3,15.1-29,19.4-44.9,8.6-32.1,3-57.4-17.2-77.4-8.8-8.7-20.8-14-35.7-15.5-1.5-.2-3-.5-4.5-.8-2.7-.6-5.3-1.2-7.9-.7-.2,0-.4,0-.5-.1Z"/>
      <path class="st1" d="M1606.3,641.8c-11.2,0-21.5-5.4-29.6-15.8-14.4-18.4-21.4-41.4-22-72.3-.2-10,.8-20.6,2.8-31.4,4.8-25.4,13-51.5,24.5-77.6,14.1-32,21.7-65.8,22.8-100.7.1-3.7-.3-7.5-.8-11.1-.4-3.3-.8-6.6-.8-10,0-2.4,0-4.8,0-7.2-.1-8.7-.2-17.7,1.3-26.6,1.2-7,3.2-15.2,9.8-22.3,5-5.5,11.5-8.1,17.8-10.6,1-.4,2-.8,3-1.2.2,0,.5,0,.7,0,.1,0,.2-.1.4-.1,1.6,0,3.3,0,5-.2,3.6-.2,7.4-.4,10.9.3,9.2,1.8,18.3,4.6,27.2,7.3,9.3,2.8,19,5.8,28.7,7.6,13.3,2.4,25.9,3.1,37.6,2,16.5-1.6,35.7-3,54.5.4,29.9,5.3,50,23.1,59.5,52.8,3.3,10.2,4,21.2,2.2,35.5-1.1,9.2-2.5,18.5-3.8,27.5-.6,4.1-1.2,8.2-1.8,12.3-1.5,10.6-2.2,22.3-2.1,35.9,0,5.6.2,11.4.3,16.9.2,7.8.4,15.9.3,23.8-.2,12.2-1.4,21.9-3.9,30.7-6.3,22.3-21.6,36.7-45.3,42.8-11.2,2.9-22.8,4.4-34.1,5.8-7.7,1-15.7,2-23.5,3.5-18.9,3.6-35.3,9.7-50.1,18.8-15.4,9.5-28.9,21.8-42,33.7-4.5,4.1-9.1,8.3-13.8,12.4-7.1,6.2-16.7,13.7-28,16.2-2.7.6-5.3.9-8,.9ZM1635.9,256.3s0,0-.1,0c-1,.4-2,.8-3.1,1.2-6.4,2.6-12.5,5-17.2,10.2-5,5.5-7.8,11.9-9.4,21.6-1.5,8.8-1.3,17.7-1.2,26.3,0,2.4,0,4.8,0,7.2,0,3.3.4,6.6.8,9.8.4,3.7.9,7.5.8,11.3-1.1,35-8.8,69.1-22.9,101.2-11.4,26-19.6,51.9-24.4,77.2-2,10.8-3,21.2-2.8,31.1.6,30.5,7.4,53.2,21.7,71.4,9.6,12.3,22.4,17.4,36,14.4,11-2.5,20.4-9.8,27.4-15.8,4.6-4,9.3-8.3,13.8-12.3,13.1-12,26.7-24.3,42.2-33.9,14.9-9.2,31.5-15.4,50.6-19,7.8-1.5,15.8-2.5,23.6-3.5,11.2-1.4,22.8-2.9,33.9-5.8,23.2-5.9,38-20,44.2-41.7,2.5-8.6,3.7-18.3,3.8-30.3.1-7.9-.1-15.9-.3-23.7-.1-5.6-.3-11.3-.3-16.9,0-13.6.6-25.5,2.1-36.1.6-4.1,1.2-8.2,1.8-12.3,1.3-9,2.7-18.3,3.8-27.5,1.7-14.1,1.1-24.9-2.2-34.9-9.4-29.2-29-46.6-58.3-51.8-18.7-3.3-37.7-1.9-54.1-.4-11.8,1.1-24.6.5-38-2-9.9-1.8-19.5-4.8-28.9-7.6-8.8-2.7-17.9-5.4-27-7.2-3.4-.7-7-.5-10.5-.3-1.7,0-3.4.2-5,.2s-.3,0-.4-.1Z"/>
      <path class="st1" d="M1608.4,707.7c-7,0-14.4-3.5-22.6-10.6-17.4-15.2-27-35.6-35.3-55.1-10.8-25.4-16.6-52.8-17.1-81.2-.2-13.5,0-24.8,1.1-35.4,1.1-11.8,2.8-24.5,5.4-39.9,3.1-18.2,8.7-36.1,14.1-53.4.9-2.9,1.8-5.8,2.7-8.7l1.5-4.9c6.8-21.9,13.9-44.6,9.9-68.7-3.5-21.3-11-39-22.7-54-7.6-9.7-16.6-18.3-25.2-26.7-4.1-4-8.4-8.1-12.4-12.3-4.2-4.3-6.6-8.5-7.5-13.3-2-10.7,7.4-16.8,16.9-18.9l.7-.2c14.3-3.2,29.2-6.5,43.1-11.7,18.7-7,38.3-14.7,59.8-23.5,5.4-2.2,11-3.2,16.5-4.3,4-.7,8.1-1.5,12.1-2.7.3,0,.6,0,.8,0,.1,0,.2,0,.3,0,13.2-.4,25.4,3.4,36.4,11.2,6,4.3,11.4,9.5,16.5,14.6l.7.7c18.6,18.1,42,23.6,62.4,26.6,15.5,2.3,31.9,5,47.6,11,37.2,14.3,62.4,40.4,74.8,77.8,6.9,20.7,3.7,41.2-.8,60.2-4.7,19.8-9.1,40.9-8,62.2.2,3.9.4,7.8.5,11.6.3,8.8.7,17.8,1.7,26.7,1.8,15.5,1.1,31.1.2,47.1-.4,7.2-1.4,15.7-5.4,23.3-8.3,16-21.8,24.2-40,24.2-3.7,0-7.4,0-11.1,0-21.9,0-44.6,0-66.7,2.9-13.5,1.8-25.5,5.2-36.5,10.3-21.6,10.1-39.9,26.8-57.7,52.6-3.3,4.8-6.6,9.7-9.9,14.5-7.5,11-15.2,22.3-23.3,33.1-6.8,9.1-13.8,13.9-21.3,14.6-.7,0-1.4.1-2.2.1ZM1650,185.2c-4.1,1.3-8.3,2-12.3,2.8-5.3,1-10.8,2-15.9,4.1-21.6,8.8-41.1,16.5-59.9,23.5-14.1,5.3-29.1,8.6-43.5,11.8l-.7.2c-8.1,1.8-16.3,6.8-14.6,15.4.8,4.2,2.9,7.9,6.7,11.8,4,4.1,8.3,8.2,12.4,12.2,8.8,8.5,17.8,17.2,25.5,27,12.1,15.5,19.7,33.6,23.3,55.4,4.1,24.7-3.1,47.8-10,70.1l-1.5,4.9c-.9,2.9-1.8,5.8-2.7,8.7-5.4,17.2-10.9,35-14,53-2.6,15.3-4.3,27.9-5.4,39.7-1,10.5-1.3,21.7-1,35.1.5,28.1,6.2,55,16.9,80.1,8.2,19.2,17.6,39.2,34.5,54,8.3,7.3,15.7,10.5,22.5,9.8,6.6-.7,12.9-5.1,19.2-13.4,8.1-10.7,15.8-22.1,23.2-33,3.3-4.9,6.6-9.7,9.9-14.6,18.1-26.2,36.8-43.2,58.9-53.6,11.3-5.3,23.5-8.8,37.4-10.6,22.4-2.9,45.1-3,67.1-3,3.7,0,7.4,0,11,0,17.2,0,29.4-7.5,37.3-22.6,3.7-7.2,4.6-15.2,5-22.1.9-15.9,1.6-31.4-.1-46.6-1-9-1.4-18.1-1.7-26.9-.2-3.9-.3-7.8-.5-11.6-1.2-21.7,3.3-43,8.1-63,4.4-18.6,7.5-38.6.9-58.6-12.1-36.4-36.7-62-73-75.9-15.5-5.9-31.7-8.6-47-10.8-20.9-3-44.9-8.7-64.1-27.4l-.7-.7c-5.1-5-10.3-10.1-16.2-14.3-10.6-7.6-21.9-11-34.5-10.6-.1,0-.3,0-.4,0Z"/>
      <path class="st1" d="M439.1,888.7c-4.5,0-9.2-.1-14-.4-8.8-.5-19-1.4-28-6.9-8.5-5.2-12.6-11.9-13.2-21.8-1.2-18.9,6.8-34.2,14.6-46.5,9.5-14.9,22.8-24.2,39.7-27.8.2,0,.4,0,.5,0,.1,0,.2-.1.4-.1.4,0,.8,0,1.2,0,29.9,0,52.4,13.9,67,41.2,5.9,11.2,6.3,23.4.9,34.6-5.9,12.3-17.8,21.4-31.9,24.2-11.6,2.3-23.9,3.5-37.3,3.5ZM438.9,786.7c0,0-.2,0-.2,0-16.5,3.5-29.5,12.6-38.8,27.1-7.8,12.2-15.5,27.1-14.4,45.6.6,9.3,4.4,15.6,12.4,20.6,8.6,5.3,18.6,6.3,27.2,6.7,18.9,1,35.6,0,51-3,13.6-2.7,25.2-11.5,30.9-23.4,5.1-10.7,4.8-22.5-.9-33.2-14.4-27.2-36.9-40.8-66.8-40.4-.2,0-.3,0-.4-.1Z"/>
      <g>
        <path class="st1" d="M57.2,1065.3c-20.8-14.9-44.7-22.3-72.4-22.3s-17.4.7-26.7,2.1c-2.2.3-4.5.7-6.7,1-11.6,1.8-23.6,3.7-35.7,3.5-1.8,0-3.6,0-5.4,0-7,0-14.2,0-21.3-1.5-16.9-3.4-31-11.3-42.1-23.3-1.8-2-3.5-4-5.1-6.1v2.5c1.3,1.6,2.6,3.1,4,4.6,11.2,12.3,25.7,20.3,42.9,23.8,7.2,1.5,14.5,1.5,21.6,1.5,1.8,0,3.6,0,5.3,0,12.2.2,24.3-1.7,35.9-3.5,2.2-.4,4.5-.7,6.7-1,39-5.9,71,.7,98,19.9,13.8,9.8,25.8,21.1,37,32.5h2.1c-11.5-11.8-23.9-23.5-38.2-33.8Z"/>
        <path class="st1" d="M237.5,952.2c-12.4-16.1-26.8-29.7-39.2-41-10.5-9.5-20.7-19.8-30.6-29.8-6.8-6.9-13.8-13.9-20.9-20.7-6.5-6.2-13.1-12-22.2-14.7-2.3-.7-4.6-.8-6.7-.9-1.5,0-3-.1-4.5-.4-.2,0-.4,0-.5,0-.2-.1-.4-.1-.6,0-15,4-27.6,12.6-39.9,21-4.9,3.4-10.1,6.9-15.2,10-23.8,14.3-47.9,20-73.8,17.4-18-1.8-35.7-6.8-52.8-11.7l-5.3-1.5c-14.1-4-28.6-6.5-43.3-8.9-12.9-2.1-25.7-1.1-40.2,3.3v1.6c14.4-4.4,27.1-5.5,39.9-3.4,14.7,2.4,29.1,4.9,43.2,8.9l5.3,1.5c17.2,4.9,35,9.9,53.1,11.7,26.2,2.7,50.6-3.1,74.7-17.6,5.2-3.1,10.4-6.6,15.3-10,12.1-8.3,24.6-16.8,39.4-20.7,0,0,.1,0,.2,0,0,0,.2,0,.3,0,1.6.3,3.2.3,4.7.4,2.1,0,4.2.2,6.4.8,8.8,2.6,15.2,8.2,21.5,14.3,7.1,6.8,14.1,13.9,20.8,20.7,9.9,10,20.1,20.3,30.6,29.8,12.4,11.2,26.8,24.8,39.1,40.8,17.7,22.9,21.8,46.5,12.6,72-9.5,26.5-19.9,49.9-31.7,71.7-.4.7-.8,1.4-1.2,2.2h1.7c.3-.5.5-1,.8-1.5,11.9-21.9,22.3-45.4,31.8-71.9,9.4-26.1,5.2-50.1-12.9-73.5Z"/>
      </g>
      <path class="st1" d="M1516.8,977.4c-10.7,0-21.2-4.5-29-12.6-24.4-25.2-38.4-49.6-43.8-76.9-2.6-12.9.5-23.4,9.8-32.9,2.5-2.6,5.6-3.1,8.5-3.7,2.1-.4,4.1-.7,5.9-1.8.2-.2.6-.2.8,0,.2-.1.5-.1.8,0,1.8,1.1,3.9,1.1,6,1.1,1.6,0,3.3,0,4.8.5,26.1,8.3,55.4,19.6,72,48,11.1,19,11.7,37.9,1.7,56.2-7.3,13.5-19.5,21-35.3,21.9-.7,0-1.4,0-2.1,0ZM1468.9,850.8c-2,1.3-4.2,1.7-6.4,2-2.8.5-5.5,1-7.7,3.2-9,9.2-11.9,19-9.4,31.5,5.4,27,19.2,51.2,43.4,76.1,8,8.3,19,12.6,30,12,15.2-.9,27-8.2,34.1-21.1,9.7-17.9,9.1-36.3-1.7-54.8-16.4-28-45.3-39.1-71.2-47.3-1.3-.4-2.8-.4-4.4-.5-2.3,0-4.6,0-6.8-1.3,0,0,0,0,0,0Z"/>
      <path class="st1" d="M1153.2,1076.1c16.9,9,35.2,16.5,56.6,23h5.3c-23.4-6.8-43.1-14.7-61.2-24.3-22.2-11.9-37.6-27.1-47-46.5-7-14.5-10-30.6-9.4-50.5.3-11.6,2.7-22,7.1-31.8,8.2-17.9,22.6-32.3,41.6-41.5,12.1-5.8,24.1-12.3,35.7-18.5,22.7-12.2,46.3-24.7,71.1-33.5,0,0,0,0,.1,0,0,0,.2,0,.3.1,1.9.3,3.9.3,5.7.4,2.7,0,5.6.1,8.4.9,20.2,5.6,33.2,20.7,44.2,36.1,19.8,27.9,35,53.3,46.6,77.9,4.4,9.3,9,20.4,10,32.6,2.1,23.7-3,46.6-15.4,70-6.5,12.3-14.6,21.9-24.1,28.6h2.6c9-6.8,16.6-16.1,22.9-27.9,12.6-23.7,17.7-46.9,15.6-70.9-1.1-12.4-5.8-23.7-10.2-33.1-11.6-24.7-26.9-50.2-46.8-78.2-11.1-15.7-24.3-31-45-36.7-3-.8-6-.9-8.8-1-1.9,0-3.7,0-5.5-.3-.2,0-.4,0-.5.1-.2-.1-.4-.1-.6,0-25,8.8-48.5,21.4-71.3,33.6-11.6,6.2-23.6,12.6-35.7,18.4-19.3,9.4-34,24-42.3,42.2-4.5,10-6.9,20.6-7.3,32.4-.6,20.2,2.4,36.5,9.6,51.2,9.6,19.7,25.2,35.1,47.7,47.2Z"/>
      <path class="st1" d="M1267.2,1090.2c-20.8,0-40.5-5-55.6-9.5-30.4-9-57.2-18.3-77.6-41.5-16.4-18.6-22.3-40.8-18.1-67.9,2.5-16.4,11.9-30.3,29.3-43.5,18.7-14.2,40.8-22.5,62.2-30.5l2.5-.9c12-4.5,22.8-7.6,33.2-9.5.2,0,.4,0,.5,0,0,0,.2,0,.3-.1,19.7-2,37.4,5.3,54.2,22.1,14.8,14.9,25.5,32.5,36.8,54.3,5.6,10.8,8.8,20.6,9.7,29.9,2.2,23-2.1,42.9-13.3,60.7-14.6,23.4-35.3,35.6-61.3,36.2-1,0-1.9,0-2.9,0ZM1243.7,888.4c0,0-.2,0-.3,0-10.3,1.9-21,4.9-32.9,9.4l-2.5.9c-21.3,8-43.3,16.2-61.8,30.3-17.1,13-26.3,26.5-28.7,42.5-4.1,26.7,1.7,48.5,17.7,66.7,20.1,22.8,46.7,32.1,76.9,41,15.7,4.6,36.4,9.9,58,9.4,25.5-.6,45.7-12.5,60.1-35.5,11-17.6,15.3-37.1,13.1-59.8-.9-9.1-4-18.6-9.6-29.3-11.3-21.7-21.9-39.2-36.6-54-16.6-16.7-33.5-23.6-52.9-21.7-.2,0-.3,0-.5-.1Z"/>
      <g>
        <path class="st1" d="M124.1,1083.4c-17.7-15.9-41.3-36.5-67-55.5-18.8-13.9-36.6-20.7-54.8-20.7s-14.8,1.1-22.3,3.4c-2.5.7-4.9,1.5-7.4,2.2-14.5,4.4-29.6,8.9-45.1,10.9-14.6,1.9-27.3.6-38.9-3.9-19-7.4-32.6-22.6-40.5-45.4l-.3-.8c-2.4-6.8-4.8-13.7-5.9-20.7v7.3c1.2,4.7,2.8,9.3,4.4,13.9l.3.8c8.1,23.2,22,38.8,41.4,46.3,11.9,4.6,24.9,5.9,39.7,4,15.7-2,30.8-6.6,45.4-10.9,2.5-.7,4.9-1.5,7.4-2.2,25.6-7.6,49.7-2.1,75.8,17.2,25.7,19,49.2,39.6,66.9,55.4,4.8,4.3,10.2,8.1,15.8,11.1,2.7,1.4,5.2,2.6,7.8,3.4h6.1c-4.2-.7-8.6-2.3-13.1-4.7-5.6-3-10.8-6.7-15.5-10.9Z"/>
        <path class="st1" d="M202,967.1c-16.2-22-37.9-40.4-66.6-56.1-11.3-6.2-29-12.2-49.2-5.2l-1.3.5c-12.4,4.3-25.3,8.7-37.3,14.5-20.7,10-42.9,11.2-68,3.8-5.6-1.7-11.3-3.4-16.9-5.1-16-4.9-32.6-10-49.3-13.5l-2-.4c-5-1.1-10.2-2.3-15.6-1.4-3.1.5-6.1,0-9-1.5-.2-.1-.5-.1-.7,0-.2-.1-.5-.2-.7,0-3.6,1.7-7.3,2.2-11.3,2.7-2.7.4-5.6.7-8.3,1.5-12.4,3.6-19.9,11.3-23.9,24.7v6.3c.1-.8.3-1.6.5-2.4,3.7-15.3,10.8-23.4,23.8-27.2,2.7-.8,5.4-1.1,8.1-1.5,3.9-.5,8-1.1,11.8-2.9,0,0,0,0,0,0,0,0,0,0,0,0,3.2,1.6,6.5,2.1,9.9,1.6,5.1-.8,10.1.3,15,1.4l2,.4c16.6,3.6,33.2,8.6,49.2,13.5,5.6,1.7,11.3,3.4,16.9,5.1,25.5,7.5,48.1,6.2,69.1-3.9,12-5.8,24.8-10.2,37.1-14.5l1.3-.5c19.6-6.8,36.9-1,48,5.1,28.4,15.7,50,33.9,66.1,55.7,11.4,15.5,15.8,31,13,46.2-5,27.6-14.6,50.3-29.3,69.5-6.8,8.9-14.2,14-22.3,15.4h5.4c6.5-2.4,12.5-7.2,18-14.5,14.9-19.3,24.5-42.3,29.6-70.1,2.8-15.6-1.6-31.6-13.3-47.4Z"/>
      </g>
      <path class="st1" d="M1249.6,1062.4c-13.4,0-28.6-1.3-43.6-6.5l-1.2-.4c-18.7-6.4-38-13.1-51.8-28.8-14.6-16.7-21.8-44-4.8-67.4,12.4-17.2,30.7-25.8,45.3-31.5,13.6-5.3,26.3-8.9,38.7-11.1.2,0,.4,0,.5,0,.1,0,.2-.1.4-.1,10.6-.3,22.8-.1,34.2,5.5,18.9,9.4,33.2,25.9,42.4,49.1,12.6,31.9,5.9,59.4-19.6,79.5-6,4.7-15.4,10.5-26.3,11.1-4.4.2-9.2.4-14.2.4ZM1232.7,918.1c0,0-.2,0-.3,0-12.3,2.2-24.9,5.8-38.4,11-14.3,5.6-32.4,14.1-44.6,30.9-16.5,22.7-9.5,49.3,4.7,65.5,13.5,15.5,32.7,22,51.2,28.4l1.2.4c20.3,7,41.3,6.9,57.2,6,10.6-.6,19.7-6.2,25.4-10.8,24.9-19.7,31.5-46.6,19.1-77.8-9.1-22.8-23.1-39.1-41.7-48.3-11.1-5.5-23.1-5.7-33.5-5.4-.1,0-.3,0-.4-.1Z"/>
      <path class="st1" d="M1888.7,999.8c-5.4,0-9.9-2.6-12.9-7.6-4.1-6.8-.7-12.8,2.3-18.2l.2-.4c8.2-14.9,21.5-24.8,40.4-30.2.2,0,.4,0,.6,0,.1,0,.3-.1.5,0,5.3.9,9.2,3.3,11.3,6.8,2,3.5,2.1,8,.3,12.9-5,13.2-13.6,23.8-25.5,31.5-4.2,2.7-9.5,4-13.6,4.8-1.2.2-2.4.4-3.6.4ZM1919.3,944.7c0,0-.1,0-.2,0-18.6,5.3-31.5,14.9-39.5,29.5l-.2.4c-2.8,5-5.9,10.7-2.3,16.7,3.3,5.6,8.5,7.8,14.9,6.6,4-.8,9-2,13.1-4.6,11.7-7.5,20.1-17.9,24.9-30.8,1.7-4.5,1.6-8.5-.2-11.7-1.8-3.2-5.4-5.3-10.2-6.1,0,0-.2,0-.3,0Z"/>
      <path class="st1" d="M97.2,363.1c-6.5,0-13-1.7-18.2-5.1-4.6-3-8.3-7.1-11.9-11l-1.6-1.7c-11.8-12.7-14.1-28.9-6.3-44.5l4.5-9c10.7-21.5,21.8-43.8,31.4-66.2,8.7-20.3,20-35.9,34.4-47.7,22.7-18.5,44.6-38.5,65.1-57.4,11.5-10.6,23.7-18.6,37.2-24.4,4.5-1.9,9.1-3.2,13.6-4.4,2.8-.8,5.7-1.6,8.5-2.5.2,0,.5,0,.6,0,.1,0,.2-.1.4-.1,1.7,0,3.5,0,5.2.1,3.7.1,7.6.3,11.2-.2,5.9-.8,11.9,1.4,16.4,6,5.3,5.4,7.7,13.1,6.4,20.8-2.7,16.7-9.9,32.4-21.3,46.5-9.4,11.7-20.4,22.2-31,32.4-3.6,3.4-7.3,7-10.9,10.6-12,11.8-22.1,26-32.8,46.1-2.4,4.5-4.7,9.2-6.9,13.7-3.8,7.7-7.6,15.7-12.3,23-13.9,22-32.6,43.3-58.9,66.8-6,5.4-14.6,8.2-23,8.2ZM254.7,90.5s0,0-.2,0c-2.8,1-5.8,1.7-8.6,2.5-4.5,1.2-9.1,2.5-13.4,4.4-13.4,5.8-25.4,13.7-36.8,24.2-20.5,18.9-42.4,39-65.1,57.4-14.3,11.6-25.4,27-34,47.1-9.6,22.5-20.7,44.7-31.4,66.3l-4.5,9c-7.4,15-5.2,30.6,6.1,42.8l1.6,1.7c3.5,3.8,7.1,7.8,11.6,10.7,11.3,7.4,29.3,6,39.3-3,26.2-23.5,44.8-44.6,58.7-66.5,4.6-7.3,8.5-15.2,12.2-22.9,2.2-4.5,4.5-9.2,6.9-13.7,10.8-20.2,21-34.5,33.1-46.4,3.6-3.6,7.3-7.1,10.9-10.6,10.6-10.1,21.5-20.6,30.9-32.3,11.2-13.9,18.3-29.4,21-45.8,1.2-7.2-1.1-14.5-6-19.5-4.2-4.3-9.7-6.3-15.1-5.5-3.8.5-7.7.4-11.5.2-1.7,0-3.4-.1-5.2-.1s-.3,0-.4-.1Z"/>
      <path class="st1" d="M1230.7,1026c-21.2,0-37.1-6.7-48.6-20.4-6.2-7.4-7.5-17.6-3.2-25.9,4.4-8.7,10.9-15.2,20-20,4.2-2.2,8.6-3.4,12.9-4.6,2.6-.7,5.2-1.4,7.7-2.4.2,0,.5,0,.7,0,.1,0,.2-.1.4-.1.6,0,1.2,0,1.8,0,1.2,0,2.5,0,3.7,0,20.6-1.1,35.5,8.1,43.1,26.4,4.3,10.3,3.4,21-2.4,29.5-7.6,11.1-19.2,17.1-33.5,17.5-.8,0-1.6,0-2.4,0ZM1220.1,954.1s0,0-.1,0c-2.6.9-5.2,1.7-7.8,2.4-4.2,1.2-8.6,2.4-12.6,4.5-8.8,4.6-15.1,10.9-19.4,19.3-4,7.8-2.8,17.3,3.1,24.3,11.6,13.9,27.9,20.4,49.8,19.9,13.8-.3,25-6.1,32.3-16.8,5.5-8,6.3-18.2,2.2-28.1-7.4-17.9-21.4-26.5-41.6-25.4-1.3,0-2.6,0-3.8,0-.6,0-1.2,0-1.7,0s-.3,0-.4-.1Z"/>
      <path class="st1" d="M133.3,1015.5c-1.1,0-2.3-.1-3.6-.4-14.1-2.9-24.1-10.9-29.7-23.9-4.6-10.6-3-15.2,7.4-21.3.2-.1.5-.1.8,0,0,0,.2,0,.3,0,6.8-1.2,14.5.9,21.5,5.8,8.3,5.8,14.2,14.4,15.7,23,1,5.4-.4,10.4-3.6,13.5-2.3,2.2-5.4,3.4-8.8,3.4ZM108.2,971.3s0,0,0,0c-9.7,5.7-11.1,9.5-6.8,19.4,5.4,12.5,15,20.2,28.6,23,4.4.9,8.4,0,11-2.6,2.9-2.8,4-7.2,3.2-12.2-1.4-8.1-7.2-16.5-15.1-22-6.7-4.7-14-6.7-20.4-5.5-.2,0-.4,0-.5,0Z"/>
      <path class="st1" d="M743.6,158.3c-6.4,0-12.8-.9-19.1-1.8-1.4-.2-2.7-.4-4.1-.6-18.7-2.5-38.5-5-58.3-5.7-13.3-.5-26.9-.4-40.1-.2-5.5,0-11,0-16.6.1h0c-6,0-11.6-1.6-16.9-4.8-10.2-6.1-11.6-11.5-6-22.3,1.3-2.6,3-4.3,4.4-5.5,26-23.9,52.8-48.7,89.3-58.1.2,0,.4,0,.6,0,0,0,.2,0,.3-.1,13-1,25.9,2,40.6,9.3,16.9,8.4,30,21.3,42.7,33.8,7.3,7.2,11.7,15.7,14.9,23,4.5,10.1.2,22.2-9.7,27.5-7.2,3.9-14.6,5.1-22.1,5.1ZM639.8,148.4c7.4,0,14.9,0,22.4.3,19.8.7,39.7,3.2,58.4,5.7,1.4.2,2.7.4,4.1.6,13.4,1.9,27.3,3.8,40.3-3.2,9.2-5,13.2-16.2,9-25.6-3.2-7.2-7.5-15.5-14.6-22.6-12.6-12.4-25.7-25.2-42.4-33.5-14.5-7.2-27.1-10.1-39.8-9.2-.2,0-.3,0-.4-.1,0,0-.1,0-.2,0-36.1,9.4-62.8,34-88.6,57.8-1.2,1.1-2.8,2.8-4,5.1-5.3,10.2-4.2,14.5,5.4,20.3,5.1,3.1,10.4,4.5,16.1,4.5h0c5.5,0,11,0,16.6-.1,5.9,0,11.8-.1,17.8-.1Z"/>
      <path class="st1" d="M764.8,194.2c-13.1,0-27.3-1.8-44.5-5.7-13.6-3.1-28.3-5.4-44.8-7-16.1-1.6-32.3.8-48,3l-2.2.3c-16.4,2.3-35.9,4.7-56.1,4.5-13.4-.1-24.6-3.3-34.3-9.6-14.4-9.4-21.4-21.4-21.5-36.6,0-11.2,4.1-21.5,13.5-33.3,9.8-12.2,23.4-19.5,36.6-26.6l5.1-2.7c13-7,26.4-14.2,38.7-22.6,2.5-1.7,4.9-3.4,7.4-5.1,15.9-11.1,32.3-22.6,52-27.7.2,0,.4,0,.6,0,0,0,.2,0,.3-.1,19.9-1.9,38.6,1.8,55.5,11.2,18.9,10.6,34.7,20.8,48.2,31.2,24.2,18.7,45.1,36.4,57.2,63.5,7.9,17.8,4.6,34.4-9.3,45.4-12.8,10.2-28.2,16.3-44.4,17.5-3.3.2-6.6.4-10.1.4ZM664.5,179.5c3.7,0,7.4.2,11.1.5,16.6,1.6,31.3,3.9,45,7,21.5,4.9,38.2,6.5,54.1,5.3,15.9-1.2,31-7.1,43.5-17.1,13.3-10.6,16.5-26.5,8.9-43.6-11.9-26.8-32.8-44.3-56.8-62.9-13.4-10.4-29.1-20.6-48-31.1-16.6-9.2-34.9-13-54.6-11.1-.2,0-.3,0-.5-.1,0,0-.1,0-.2,0-19.4,5.1-35.8,16.5-51.5,27.5-2.5,1.7-4.9,3.4-7.4,5.1-12.4,8.5-25.8,15.7-38.9,22.7l-5.1,2.7c-13,7-26.5,14.2-36.1,26.2-9.2,11.5-13.3,21.5-13.2,32.4.1,14.7,6.9,26.3,20.9,35.4,9.4,6.1,20.3,9.2,33.5,9.3,20,.2,39.5-2.1,55.8-4.5l2.2-.3c12.2-1.7,24.7-3.5,37.2-3.5Z"/>
      <path class="st1" d="M1173.9,444.1c-8,0-16.3-1.6-24.5-4.8-14.9-5.8-30-13.7-45-23.5-16.2-10.5-36.3-25.8-47.7-50.2-7-15-12.4-30.9-17.7-46.3-3.3-9.8-6.8-19.9-10.6-29.7-8-20.5-20.1-32.6-38-38.2-11.4-3.5-22.5-8.6-33.3-13.5-10.6-4.9-20.8-10.7-30.7-16.3-7.7-4.4-15.7-8.9-23.7-12.9-15.5-7.8-28.4-10.4-40.4-8.3-15.3,2.7-30.5,7.1-45.2,11.4h-.4c-26.9,8-56.2,9.7-86.9,5.2-7.4-1.1-14.9-2.5-22.2-3.8-10.3-1.9-20.9-3.9-31.4-5-19.7-2.2-39.8.5-59.2,3.2h-.4c-8.9,1.3-18,2.1-26.8,2.8-5.2.5-10.5.9-15.8,1.5-12.1,1.3-24.2-.8-35.6-3.2-29.4-6.1-48.6-22.6-57.3-48.8-2.8-8.6-2.6-17.5-2.5-26.2,0-2.5,0-5.1,0-7.7-.1-10.4,2.9-20.5,9.5-31.7,9.2-15.6,23.6-24.4,36.5-30.8,4.4-2.2,8.9-4.4,13.3-6.5,11.6-5.6,23.6-11.4,34.8-18.3,13.2-8.2,24.3-17,33.8-27.2,2.5-2.7,5-5.5,7.3-8.3,8.4-9.8,17-19.9,30.6-24.1.2,0,.4,0,.6,0,0,0,.2,0,.3-.1,21.4-1.9,43.1,3.1,68.1,15.8,14.7,7.4,29.7,16.1,45.8,26.5,7.7,4.9,15.7,9.7,23.4,14.4,12.9,7.8,26.3,15.8,38.8,24.9,8.8,6.4,16.9,13.7,24.7,20.8,5,4.5,10.2,9.2,15.5,13.6,10.4,8.6,20.8,16.6,34.2,20.6,6.9,2.1,14,3.6,20.9,5.1,3.3.7,6.6,1.4,9.9,2.2,27.4,6.4,47.6,20.9,61.9,44.2,6.2,10.2,11.3,21.1,16.2,31.6,2.5,5.3,5,10.8,7.6,16.1,4.2,8.4,8.3,15.8,16,21.1,10.1,7,22.2,10.2,38.3,10.2,5.5,0,11,.4,16.4.8,9.5.7,19.4,1.4,29.2-.1,7.8-1.2,16-1.2,23.8-1.1,5.9,0,12,.1,18-.4,15.4-1.3,35.7-2.1,55.3,2.9,15.5,4,26.2,11.7,32.9,23.6,6.9,12.3,5.8,25.4,4.7,38.1-.2,2.1-.3,4.1-.5,6.2-.7,10.9-2.3,22-3.9,32.8-.6,4-1.1,7.9-1.7,11.9-2.2,16.2-4.8,31.8-12.9,46.4-12,21.3-32.2,33.2-54.3,33.2ZM870.4,198.2c10,0,20.7,3,33,9.2,8.1,4,16.1,8.6,23.8,13,9.8,5.6,20,11.4,30.4,16.2,10.8,5,21.9,10,33.2,13.5,18.4,5.7,30.8,18.1,39,39,3.8,9.8,7.3,19.9,10.6,29.7,5.2,15.3,10.6,31.2,17.6,46.2,11.3,24.1,31.1,39.2,47.1,49.6,14.9,9.7,30,17.6,44.7,23.4,30.1,11.8,61,.7,76.9-27.7,8-14.3,10.6-29.8,12.8-45.8.5-4,1.1-7.9,1.7-11.9,1.6-10.7,3.2-21.8,3.9-32.7.1-2.1.3-4.1.5-6.2,1-12.4,2.1-25.3-4.5-37.2-6.4-11.5-16.9-19-32-22.9-19.4-5-39.5-4.1-54.8-2.9-6.1.5-12.2.5-18.1.4-7.8,0-15.8-.1-23.5,1.1-10,1.6-20,.8-29.6.1-5.3-.4-10.8-.8-16.3-.8-16.3,0-28.8-3.4-39.1-10.5-8-5.5-12.2-13.1-16.5-21.7-2.7-5.3-5.2-10.8-7.7-16.1-4.9-10.5-9.9-21.4-16.1-31.5-14.1-22.9-34-37.2-61-43.5-3.3-.8-6.6-1.5-9.9-2.2-6.9-1.5-14-3.1-21-5.1-13.7-4.1-24.3-12.2-34.8-20.9-5.3-4.4-10.5-9.1-15.5-13.6-7.8-7.1-15.9-14.4-24.6-20.7-12.4-9-25.8-17-38.7-24.8-7.7-4.6-15.7-9.4-23.4-14.4-16.1-10.4-31.1-19-45.7-26.4-24.8-12.5-46.1-17.5-67.3-15.6-.2,0-.3,0-.5-.1,0,0-.1,0-.2,0-13.2,4-21.7,14-29.9,23.6-2.4,2.8-4.8,5.7-7.4,8.4-9.6,10.2-20.8,19.2-34.1,27.4-11.2,6.9-23.3,12.8-34.9,18.4-4.4,2.1-8.9,4.3-13.3,6.5-12.7,6.4-26.9,15-35.9,30.3-6.5,11-9.4,20.8-9.3,30.9,0,2.6,0,5.2,0,7.7-.2,8.5-.3,17.3,2.4,25.7,8.4,25.7,27.3,41.8,56.1,47.8,11.2,2.4,23.3,4.4,35.2,3.1,5.3-.5,10.6-1,15.8-1.5,8.8-.8,17.9-1.6,26.8-2.8h.4c19.5-2.7,39.6-5.4,59.5-3.2,10.6,1.2,21.2,3.1,31.5,5,7.3,1.3,14.8,2.7,22.2,3.8,30.5,4.5,59.6,2.8,86.3-5h.4c14.8-4.4,30-8.9,45.4-11.6,2.7-.5,5.5-.7,8.3-.7Z"/>
      <path class="st1" d="M770.3,1099.1c4.9-1.5,9.7-2.8,14.2-4.1,6.6-1.8,13.3-3.1,19.9-4.4,3.1-.6,6.1-1.2,9.2-1.9,0,0,.2,0,.2,0,.1,0,.2.1.4.1h6.4c4.7,0,9.4,0,14,0,12.6-.1,24.7,3.6,34.3,10.4h2.5c-10-7.6-22.8-11.9-36.3-11.9s-.4,0-.5,0c-4.7,0-9.3,0-14,0h-6.4c-.1,0-.3,0-.4.1-.2,0-.4-.1-.6,0-3,.7-6.1,1.3-9.1,1.9-6.6,1.3-13.4,2.7-20,4.5-5.9,1.6-12.2,3.4-18.8,5.5h5.1Z"/>
      <path class="st1" d="M153.6-19.1c-2.6,1.1-5.1,2.2-7.6,3.3-4.9,2.1-9.9,4.4-14.7,6.6-12.9,5.9-26.2,11.9-40.2,15.7-4.6,1.3-8.3,1.8-12.2.6-3.1-.9-4.9-2.2-5.7-3.8-.8-1.6-.6-3.9.7-6.9,2.1-5.2,5.2-10.3,9.4-15.4h-1.9c-3.8,4.9-6.8,9.8-8.8,14.8-1.4,3.5-1.6,6-.6,8.1,1,2.1,3.1,3.5,6.6,4.6,1.7.5,3.3.7,4.9.7,2.6,0,5.2-.5,8.1-1.3,14.1-3.8,27.5-9.9,40.4-15.7,4.8-2.2,9.8-4.4,14.7-6.5,3.5-1.5,7.1-3.1,10.8-4.6h-3.8Z"/>
      <path class="st1" d="M217.9-19.1c-3.8,2.4-7.7,4.7-11.9,6.7-4,1.9-8,3.9-12,5.8-26.3,12.6-53.5,25.7-77.8,42.8-29.6,20.9-56.3,34-84.1,41.2-20.8,5.4-43.2,10.2-65.9,8.4-8.4-.7-14.7-3.6-18.2-8.5-3.4-4.9-4.1-11.4-1.9-19.4,2.9-10.6,8.5-19.9,17.5-29.3C-22.3,14-5.2,2.5,11.4-8.7c5-3.4,10.2-6.9,15.2-10.4h-2.6c-4.5,3.1-9,6.2-13.4,9.2C-6.1,1.3-23.3,12.9-37.6,27.6c-9.2,9.5-14.9,19-17.8,29.9-2.3,8.5-1.6,15.4,2.1,20.7,3.8,5.3,10.4,8.5,19.3,9.1,3.3.3,6.6.4,9.9.4,19.5,0,38.5-4.2,56.5-8.8,28-7.3,54.9-20.4,84.6-41.4,24.2-17.1,51.3-30.1,77.6-42.7,4-1.9,8-3.9,12-5.8,5-2.4,9.6-5.1,14-8h-2.7Z"/>
      <path class="st1" d="M1505.5,1026.5c-6.4,0-13.1-1.2-20.1-4.1-11.4-4.8-18.1-13.7-23.9-22.3-7-10.3-13.2-21.3-19.2-31.9-5.3-9.5-10.9-19.2-16.9-28.5-7.2-11-15.3-23.4-21.5-36.8-11.6-25-13.1-52.1-14.5-78.3-.1-2.2-.2-4.4-.4-6.5-.6-9.9-2.1-17.7-4.9-24.7-4-9.8-9.5-19.7-17.9-32-9.7-14.3-20.7-31.6-28.3-51-8.7-22.3-17.1-46.5-20.1-72.9-1.7-15.2-3.2-31.4.2-48,5.6-27.9,23.1-45.8,53.4-54.6,1.5-.4,3-.7,4.5-.9,2.6-.4,5-.8,7.2-2.1.3-.2.6-.1.8,0,.1,0,.3-.1.4-.1,21.7.3,38.1,10.5,48.7,30.1,10.6,19.7,16,42.9,17.1,73.1.9,23.5.7,47.5.5,70.7,0,9.7-.2,19.6-.2,29.5,0,4.1,1,8.2,1.9,12.1.4,1.6.8,3.3,1.1,5,3.2,16.6,13.2,29.2,23.5,40.3,13.2,14.3,28.9,26.4,44,38.1,11.5,8.9,23.4,18.1,34.1,28.2,10.6,9.9,18.3,20.3,23.5,31.7,7.1,15.3,10,32.3,8.9,51.9-.7,12.5-4.3,25.2-11.2,38.6-7.5,14.8-19.6,26.7-35.9,35.2-9.7,5.1-21.6,10.1-34.8,10.1ZM1383.9,533.2c-2.4,1.5-5.1,1.9-7.7,2.3-1.4.2-2.9.4-4.3.8-29.7,8.6-46.9,26.1-52.3,53.4-3.3,16.4-1.9,32.5-.1,47.5,3,26.2,11.4,50.3,20,72.5,7.5,19.3,18.4,36.5,28.1,50.7,8.5,12.4,14,22.4,18,32.3,2.9,7.1,4.5,15.1,5.1,25.2.1,2.2.2,4.4.4,6.5,1.4,26,2.8,52.9,14.3,77.7,6.2,13.3,14.3,25.7,21.4,36.6,6.1,9.3,11.6,19.1,17,28.6,6,10.6,12.2,21.5,19.1,31.8,5.7,8.5,12.3,17.1,23.3,21.8,20.7,8.7,39.5,1.4,53.6-6,16-8.4,27.9-20,35.3-34.6,6.7-13.3,10.3-25.7,11-38,1.1-19.4-1.8-36.1-8.8-51.2-5.2-11.2-12.8-21.4-23.2-31.2-10.7-10.1-22.6-19.2-34-28.1-15.2-11.7-30.8-23.8-44.1-38.3-10.5-11.3-20.6-24.1-23.9-41.1-.3-1.7-.7-3.3-1.1-4.9-.9-4-1.9-8.1-1.9-12.4,0-9.8,0-19.8.2-29.5.2-23.2.4-47.1-.5-70.6-1.1-29.9-6.5-52.9-17-72.4-10.3-19.1-26.2-29-47.4-29.3-.1,0-.3,0-.4-.1Z"/>
      <path class="st1" d="M1650.3,527.7c-4.1,0-7.4-1.1-9.8-3.2-3.6-3.2-5-8.7-4.1-16.3.5-4.4,2.3-8.8,3.9-13.1l.5-1.2c3.1-7.9,6.7-15.8,10.2-23.4,3-6.6,6.2-13.5,8.9-20.3,4.7-11.6,8.3-23.7,11.9-35.4,1.8-5.8,3.6-11.8,5.5-17.7,5.6-17.1,14.4-35.7,37.2-43.9,2.8-1,5.7-1.7,8.5-2.3,3.9-.9,7.7-1.8,11.2-3.5.2-.1.5,0,.7,0,.1,0,.3-.1.4-.1h18.9c17.3,0,30.6,10.7,34.6,28,2.3,9.7,3.6,19.7,4.9,29.4v1.1c.5,2.5.8,5.1,1.2,7.6,1.9,13.9,3.9,28.3,3.2,42.6-.7,14.7-5.2,25.6-14.1,34.3-12.4,12.1-28.1,15.5-43.1,18-3.6.6-7.3,1.2-10.9,1.8-7.3,1.1-14.8,2.3-22.1,3.8-10.1,2-20.1,4.8-29.8,7.5-6.5,1.8-13.2,3.7-19.9,5.3-3,.7-5.6,1.1-8,1.1ZM1735.1,348.6s0,0,0,0c-3.7,1.8-7.7,2.7-11.5,3.6-2.8.6-5.6,1.3-8.4,2.3-22.2,8-30.8,26.2-36.3,43-1.9,5.9-3.7,11.9-5.5,17.7-3.6,11.8-7.2,23.9-11.9,35.6-2.8,6.9-5.9,13.8-9,20.4-3.5,7.6-7.1,15.4-10.1,23.3l-.5,1.2c-1.6,4.2-3.3,8.5-3.8,12.7-.8,7.1.4,12.1,3.6,15,3.4,3,8.9,3.6,16.4,1.7,6.6-1.6,13.3-3.5,19.8-5.3,9.7-2.7,19.8-5.5,29.9-7.5,7.4-1.4,14.9-2.6,22.2-3.8,3.6-.6,7.3-1.1,10.9-1.8,14.8-2.5,30.2-5.9,42.3-17.6,8.6-8.4,12.9-19,13.6-33.3.7-14.2-1.3-28.5-3.2-42.3-.4-2.5-.7-5.1-1-7.6v-1.1c-1.4-9.6-2.7-19.6-5-29.3-3.8-16.5-16.5-26.8-33.1-26.8h-18.9c-.1,0-.3,0-.4-.1Z"/>
      <path class="st1" d="M1393.5,719.1c-4.8,0-10.1-1.9-16.1-5.6-12.2-7.5-19-18.5-24.1-28.2-12.7-24.3-17.6-48.8-14.3-73,2.4-17.7,10.4-30.8,23.7-38.9,3.1-1.9,6.6-2.7,10-3.4,2.5-.6,5.1-1.1,7.4-2.1.2,0,.5,0,.7,0,.1,0,.3-.1.5-.1,13.7,1.3,24.2,7.2,31.3,17.5,8.6,12.6,13.2,27.3,14.1,45v1.4c.7,12.5,1.3,25.3-1.4,37.9-.3,1.5-.6,3-.9,4.5-2.1,10.3-4.3,20.9-10.2,30.2-6.2,9.9-12.8,14.8-20.6,14.8ZM1380.7,569.2s0,0,0,0c-2.5,1.1-5.1,1.7-7.7,2.2-3.4.8-6.6,1.5-9.5,3.2-13,7.9-20.7,20.6-23,37.8-3.2,23.8,1.6,48.1,14.2,72.1,5,9.5,11.7,20.3,23.6,27.6,14.9,9.2,24.9,6.7,34.6-8.7,5.7-9.1,7.9-19.5,10-29.7.3-1.5.6-3,.9-4.5,2.7-12.4,2-25.2,1.4-37.5v-1.4c-.9-17.4-5.4-31.9-13.9-44.2-6.9-10.1-16.8-15.6-30.2-16.9-.1,0-.2,0-.3-.1Z"/>
      <path class="st1" d="M244.8,689.5c-2.7-12.9-11.5-24.4-24.8-32.4-9.2-5.5-19.5-7.7-30.1-9.7-12.4-2.3-24.8-1-36.7.3-8.7.9-17.6,1.9-26.4,1.5-7.9-.4-18-1.5-27.2-6.2-9.5-5-19.1-10.3-28.3-15.4-3.7-2.1-7.5-4.2-11.2-6.2-16.4-9-34-15.3-53.6-22-14.7-5-18.7-17.2-20.7-28.5-4.3-24.5-8.7-49.9-18.9-73.7-11.6-27.3-31.6-44.2-61.2-51.5-6.6-1.6-13.3-2.6-19.8-3.4-2.4-.3-4.7-.6-7.1-1-.2,0-.4,0-.5.1-.3-.2-.6-.1-.9,0-2.1,1.9-4.6,1.9-7.3,2-1.7,0-3.4.1-5.1.6-9.8,2.9-17.4,7.2-23.1,13v2.2c5.6-6.2,13.4-10.7,23.6-13.8,1.5-.4,3.1-.5,4.7-.6,2.8-.1,5.7-.2,8.2-2.3,0,0,.2,0,.3,0,2.4.4,4.7.7,7.1,1,6.5.9,13.1,1.8,19.7,3.4,29.1,7.2,48.8,23.7,60.2,50.6,10.1,23.7,14.5,49,18.8,73.4,2,11.7,6.2,24.4,21.7,29.6,19.5,6.7,37.1,12.9,53.4,21.9,3.7,2.1,7.5,4.1,11.2,6.2,9.2,5.1,18.8,10.5,28.3,15.4,9.4,4.9,19.8,6,27.8,6.4,8.9.5,18-.5,26.7-1.5,11.8-1.3,24.1-2.6,36.3-.3,10.9,2,20.6,4.2,29.6,9.5,12.9,7.7,21.5,18.9,24.1,31.4,2.5,12.1-.5,24.9-8.7,36.3-11.6,16.2-28.9,24.8-56.1,27.8-13.1,1.5-25.8-2.2-38.2-5.8l-1.6-.5c-6.2-1.8-12.2-4.1-18.1-6.4-7.4-2.9-15-5.8-22.9-7.7-8.2-1.9-16.6-3.1-24.8-4.2-6.9-.9-14-1.9-21-3.4-27.1-5.7-43.9-20.4-51.4-44.9-4.4-14.6-6.7-29.8-8.9-44.6-.5-3.1-.9-6.2-1.4-9.2-2.7-17.3-4.5-28.7-27.2-35.1-4.6-1.3-9.2-2.5-13.9-3.8-13.6-3.7-27.7-7.5-41.2-12.5-20.7-7.6-44-18.3-60.2-39-2.2-2.8-4.2-5.7-6-8.5v2.8c1.5,2.2,3.1,4.4,4.8,6.6,16.5,21,40,31.7,60.9,39.4,13.5,5,27.7,8.8,41.3,12.5,4.6,1.3,9.3,2.5,13.9,3.8,21.8,6.1,23.4,16.6,26.1,33.9.5,3.1.9,6.2,1.4,9.2,2.2,14.8,4.5,30.1,9,44.8,7.6,25.1,24.8,40.1,52.5,46,7,1.5,14.2,2.4,21.1,3.4,8.1,1.1,16.5,2.3,24.6,4.2,7.8,1.9,15.4,4.8,22.7,7.6,5.9,2.3,12,4.7,18.3,6.5l1.6.5c10.5,3,21.3,6.2,32.5,6.2s4.1-.1,6.2-.3c27.6-3.1,45.3-11.9,57.1-28.5,8.4-11.7,11.5-25,8.9-37.5Z"/>
      <path class="st1" d="M281.9,646.9c-10.1-11.4-24.3-19.8-42.2-24.9-16.5-4.7-34.1-7.4-53.9-8.3-2.9-.1-5.8-.2-8.6-.3-11.6-.4-23.7-.9-35.3-2.7-17.1-2.6-31.9-7.1-45.3-13.7-16.2-8-32.9-16.2-48.8-26.4-18.4-11.8-31.6-28.8-42.6-55.1-1.2-2.9-2.4-5.8-3.6-8.8-7.8-18.8-15.8-38.3-29.9-54.1-11.7-13.1-27.3-22.8-47.7-29.5-16-5.3-30.5-9.7-46.2-9.5-1,0-2-.4-3-.8-1.7-.7-3.7-1.4-6-.7-.3,0-.7,0-1,0-3.8,1.6-7.8,2.1-12,2.6-3.3.4-6.7.8-10,1.8-1.4.4-2.7.9-4,1.4v3.2c1.6-.6,3.2-1.2,4.9-1.7,3.1-.9,6.3-1.3,9.5-1.7,4.2-.5,8.5-1,12.6-2.7.3,0,.6,0,.8,0,1.3-.4,2.6,0,4,.6,1.2.5,2.6,1,4.2,1,15.2-.2,29.5,4.1,45.2,9.3,19.8,6.6,35,16,46.4,28.7,13.7,15.3,21.7,34.6,29.3,53.2,1.2,2.9,2.4,5.9,3.6,8.8,11.3,26.8,24.8,44.2,43.8,56.4,16,10.3,32.8,18.6,49.1,26.5,13.6,6.7,28.7,11.3,46.2,13.9,11.8,1.8,23.9,2.2,35.6,2.7,2.9.1,5.8.2,8.6.3,19.5.9,36.9,3.5,53.2,8.1,17.3,4.9,31,13,40.7,24,22.1,25,19,45,6.9,69.1-11.7,23.2-31.7,42-61.2,57.5-19.3,10.1-40.2,17.1-60.3,23.9-5.3,1.8-10.7,3.6-16,5.4-16.5,5.7-31.9,3.3-45.9-7.3-8.2-6.2-17.3-11.3-26-16-12.4-6.6-25.5-12.3-38.1-17.8-8.8-3.8-17.8-7.7-26.5-11.9-17.2-8.3-29-20.9-35.3-37.6-3.6-9.8-6.1-20.1-8.5-30.2-1.3-5.4-2.6-11.1-4.1-16.6-6.3-22.9-18.1-40.3-36.1-53.3-12.1-8.7-25.4-15.3-38.3-21.7-5.1-2.5-10.4-5.2-15.5-7.9-11.2-5.9-22.8-12.5-32.7-21v4c9.7,7.9,20.7,14,31.3,19.7,5.2,2.7,10.5,5.4,15.6,7.9,12.8,6.4,26.1,13,37.9,21.5,17.4,12.5,28.9,29.4,35,51.6,1.5,5.4,2.8,11.1,4.1,16.5,2.4,10.1,4.9,20.6,8.6,30.6,6.5,17.4,18.9,30.6,36.8,39.2,8.8,4.2,17.9,8.2,26.6,12,12.6,5.5,25.6,11.1,37.9,17.7,8.6,4.6,17.6,9.7,25.6,15.7,9.6,7.3,19.9,10.9,30.7,10.9,5.9,0,11.9-1.1,18-3.2,5.3-1.8,10.6-3.6,15.9-5.4,20.3-6.8,41.3-13.9,60.8-24.1,30.1-15.7,50.6-34.9,62.5-58.8,12.3-24.5,15.8-46.2-7.3-72.4Z"/>
      <path class="st1" d="M-87,541.6c-18.1,0-36.3-13.7-42.8-27.5-4.5-9.5-3.6-18.7,2.4-26.5,3.4-4.4,8.4-5.9,13.2-7.4,1.5-.5,3-.9,4.5-1.5.2,0,.5,0,.7,0,.1,0,.3-.1.5-.1,24.2,1.8,39.4,15.3,43.8,39,1,5.3-.4,11.1-3.8,15.6-3.5,4.7-8.8,7.6-14.8,8.2-1.2.1-2.4.2-3.5.2ZM-109.1,480.1s0,0-.1,0c-1.5.6-3.1,1-4.6,1.5-4.8,1.5-9.3,2.8-12.4,6.9-5.6,7.4-6.4,16-2.2,25,6.7,14.3,26.3,28.4,44.8,26.5,5.6-.6,10.5-3.3,13.7-7.6,3.1-4.2,4.5-9.6,3.6-14.4-4.3-22.9-19-36-42.5-37.7-.1,0-.2,0-.3-.1Z"/>
      <path class="st1" d="M921.2,578.7c-4.6,0-9.3-.4-14.3-1.3-15.6-2.7-26.1-7.9-33.2-16.4-9.3-11.2-13.1-20.7-5.2-36.6,3.6-7.2,9-13,17.6-19.1,10.4-7.3,22.1-12.5,35.7-15.7.2,0,.4,0,.6,0,.1,0,.3-.1.4-.1,1.1,0,2.2,0,3.2,0,2.3,0,4.7,0,7,0,10.7-.7,19,4.2,25.9,15.2,7.9,12.6,9.3,26.3,9.5,38,.5,23.8-18.1,30.9-32.1,34.2-4.9,1.1-9.9,1.7-15.2,1.7ZM922.4,491c0,0-.1,0-.2,0-13.4,3.2-25,8.2-35.2,15.5-8.3,5.9-13.6,11.6-17.1,18.5-7.6,15.2-4.1,24,5,35,6.8,8.2,17.1,13.2,32.3,15.9,10.5,1.8,19.9,1.7,28.8-.4,21.5-5.1,31.4-15.5,31-32.7-.3-11.5-1.6-24.9-9.3-37.2-6.7-10.7-14.3-15.1-24.6-14.5-2.4.1-4.8.1-7.1,0-1.1,0-2.1,0-3.2,0s-.3,0-.4-.1Z"/>
      <path class="st1" d="M1487.1,1071.4c-6.8,0-13.8-.6-21-1.7-10.6-1.7-18.6-5.8-24.2-12.5-6.6-7.8-9-17.3-11.4-26.5l-.5-2c-1.1-4.3-2.1-8.8-3.1-13.1-1.9-8.6-3.9-17.5-7-26-6.9-19.1-17.5-36.6-27.8-53.5-2.6-4.2-5.2-8.5-7.7-12.8-8.4-14.1-14.5-27-18.8-39.3-5.2-15.2-9.6-31.6-14.2-53.3-5.6-26.6-14.4-52.7-22.1-75.8-8.5-25.3-14.9-51.1-20.5-75.2-8-34.2-14.4-65.1-12.8-97.2.5-10.8,2.9-20.6,7.3-30,11.8-25.5,35.5-37.7,58.3-49.4l1.9-1c10.5-5.4,21.8-8.4,32.4-11.1.2,0,.4,0,.6,0,.1,0,.3-.1.5-.1,1.5.1,3,.1,4.4.1,2.4,0,4.9,0,7.5.6,17.6,4.5,27.4,16.9,36.6,34.1,9.5,17.6,13.6,36.3,17.7,57.2,4.1,21.1,5.8,42.5,7.3,64.3.3,4.5.6,8.9.9,13.4,1,15.4,2,31.3,4,46.8,2.1,15.7,6.6,30.9,13.5,45.1,15.8,32.6,43.3,55.9,69.8,78.4l3.2,2.7c15.9,13.5,27.3,29.4,34.9,48.8,9.1,23,9.9,46.7,9.5,66.8-.2,10-2.2,19.5-4.1,27.5-5.2,21.4-16.6,40.9-34.9,59.6-22.6,23.1-49.5,34.7-80.2,34.7ZM1396.5,492.6c0,0-.1,0-.2,0-10.6,2.6-21.8,5.6-32.1,10.9l-1.9,1c-22.6,11.6-46,23.6-57.6,48.7-4.3,9.2-6.6,18.8-7.1,29.4-1.6,31.9,4.8,62.7,12.8,96.8,5.6,24,11.9,49.8,20.4,75,7.8,23.1,16.6,49.3,22.2,75.9,4.5,21.6,8.9,38,14.1,53.1,4.2,12.2,10.3,25,18.7,39,2.5,4.3,5.1,8.5,7.7,12.7,10.4,17,21.1,34.5,28,53.8,3.1,8.6,5.1,17.5,7,26.2,1,4.3,2,8.7,3.1,13.1l.5,2c2.4,9.4,4.7,18.3,11.1,25.9,5.4,6.4,13,10.3,23.3,12,39.1,6.2,72.7-4.7,99.9-32.6,18.1-18.6,29.5-37.9,34.5-59,1.9-7.9,3.9-17.3,4.1-27.2.4-20-.4-43.5-9.4-66.2-7.5-19.1-18.8-34.9-34.5-48.2l-3.2-2.7c-26.6-22.6-54.2-46-70.2-78.9-7-14.4-11.6-29.7-13.7-45.5-2.1-15.6-3.1-31.5-4-46.9-.3-4.4-.6-8.9-.9-13.3-1.5-21.8-3.2-43.1-7.3-64.1-4.1-20.8-8.2-39.4-17.5-56.8-9.1-16.9-18.6-29-35.7-33.4-2.4-.6-4.7-.6-7.1-.6-1.5,0-3.1,0-4.6-.1-.1,0-.2,0-.3-.1Z"/>
      <path class="st1" d="M473.8,621.1c-2.5,0-4.9-1.1-7.2-2.2-.8-.4-1.6-.8-2.4-1.1-16.7-6.9-31.3-17-43.4-26l-1.7-1.3c-19.6-14.6-39.9-29.6-62.7-40-21.5-9.8-44-17.9-65.8-25.7-18.5-6.6-37.7-13.5-56.1-21.4l-2.5-1c-13.9-5.9-28.3-12.1-39.6-23.2-7-6.9-8.8-19.8-4-28.3,12.6-22,31.6-36.6,56.2-51.8,13.4-8.2,26.3-13.4,39.5-15.9.2,0,.4,0,.5,0,.1,0,.3-.1.4-.1,3.9.1,7.9,0,11.8,0,9.4-.2,19.2-.5,28.5,2.5,23.4,7.3,43.6,19.5,60,36.3,14.3,14.5,26.5,32.1,36.5,52.5,12.1,24.7,21.8,43.2,31.7,60,10.4,17.6,23.1,41.3,29.5,67.6,1,4.3,3,12.3-3.9,17.2-1.9,1.3-3.6,1.8-5.3,1.8ZM284.6,384.6c0,0-.2,0-.3,0-13.1,2.5-25.8,7.6-39,15.7-24.5,15-43.3,29.5-55.7,51.2-4.5,7.9-2.8,20.1,3.7,26.5,11.1,10.9,25.4,17,39.2,22.9l2.5,1c18.4,7.9,37.5,14.7,56.1,21.3,21.9,7.8,44.5,15.9,66,25.7,22.9,10.5,43.3,25.6,63,40.2l1.7,1.3c12,8.9,26.5,18.9,43.1,25.8.8.3,1.6.7,2.5,1.1,3.8,1.8,7,3.3,11,.5,5.6-4,4.7-10.1,3.3-15.6-6.4-26.2-19.1-49.7-29.4-67.2-9.9-16.8-19.7-35.4-31.8-60.2-9.9-20.2-22-37.7-36.2-52.1-16.3-16.6-36.3-28.6-59.4-35.9-9.1-2.9-18.8-2.6-28.1-2.4-3.9,0-7.9.2-11.9,0-.1,0-.3,0-.4-.1Z"/>
      <path class="st1" d="M664.6,475.5c-6.4,0-13.3-1-20.8-2.9-19.8-5.2-36.8-16.1-52.1-33.5-10-11.4-21-24.9-25.6-42.3-2.7-10,.8-16.7,10.1-19.5.5-.1.9-.4,1.3-.7.8-.5,1.6-1.1,2.8-1,.1,0,.2,0,.3.1.1,0,.2-.1.4-.1,7.8-.1,15.3,1.9,22.5,3.8l2.9.8c33.3,8.8,62,26.6,88.1,44.4,9.4,6.4,14.1,12.8,14.4,19.4.3,6.5-3.6,13.1-12,20.2-9.1,7.6-19.8,11.4-32.5,11.4ZM580.1,376.9c-.6,0-1,.3-1.7.8-.5.3-1.1.7-1.8,1-8.5,2.6-11.5,8.5-9.1,17.7,4.6,17.1,15.5,30.5,25.3,41.7,15.1,17.2,31.8,28,51.3,33.1,22,5.7,38.5,3.1,51.9-8.2,8-6.7,11.7-13,11.4-19-.3-6.2-4.8-12.1-13.8-18.3-26-17.8-54.6-35.5-87.7-44.2l-2.9-.8c-7.5-2-14.5-3.9-22.1-3.7-.1,0-.3,0-.4-.1-.1,0-.3.1-.5.1,0,0,0,0-.1,0Z"/>
      <path class="st1" d="M699.8,522.6c-.2,0-.4,0-.6,0-11.6-.1-22.7-3-33.4-5.7l-2.3-.6c-32.2-8.2-60.1-23.6-82.9-45.7-12.5-12.1-24.6-26.1-39.3-45.5-11.3-14.8-22.7-31-28.1-50.9-2.2-8-1.1-16.5,3-23.4,3.6-6.1,9.2-10.4,15.9-12.1,1.4-.4,2.9-.6,4.3-.9,3.1-.6,6.2-1.1,9-2.8.2-.1.5-.1.8,0,0,0,.2,0,.3-.1,12.1-.8,25.3.5,40.3,4.1,26.7,6.3,53,17.5,74.2,26.5,28.4,12,55.1,18,81.6,18.3,8.8,0,18.8.2,28.4,1.5,1.2.2,2.4.3,3.7.4,5.5.6,11.1,1.3,16.4,4,8.9,4.5,13.3,12,11.3,19-3,10.5-6.4,18-11.1,24.5l-3.7,5.1c-5.2,7.1-10.5,14.5-16,21.5-3.9,5-7.8,10.3-11.5,15.3-8.7,11.9-17.8,24.2-28.7,34.8-8.9,8.7-19.2,12.9-31.4,12.9ZM546,336.1s0,0,0,0c-3,1.7-6.3,2.4-9.5,2.9-1.4.3-2.8.5-4.2.9-6.4,1.7-11.6,5.6-15,11.4-3.8,6.6-4.9,14.7-2.8,22.3,5.3,19.7,16.7,35.7,27.9,50.4,14.7,19.4,26.8,33.3,39.2,45.4,22.7,22,50.3,37.2,82.3,45.4l2.3.6c11.1,2.8,21.6,5.5,33,5.7,12,.1,22.2-3.9,31-12.4,10.8-10.5,19.8-22.8,28.5-34.7,3.7-5.1,7.6-10.3,11.5-15.4,5.5-7,10.8-14.4,16-21.5l3.7-5.1c4.6-6.3,8-13.7,10.9-24,1.8-6.3-2.4-13-10.6-17.2-5-2.6-10.5-3.2-15.8-3.8-1.2-.1-2.5-.3-3.7-.4-9.5-1.3-19.4-1.4-28.2-1.5-26.7-.3-53.6-6.3-82.2-18.4-21.1-8.9-47.3-20.1-73.9-26.4-14.9-3.5-27.9-4.8-39.9-4.1-.2,0-.3,0-.4-.1Z"/>
      <path class="st1" d="M1168.5,750.1c-11.1,0-22.6-1.5-34.8-4.4-22.1-5.3-37.4-17.9-45.6-37.5-5.5-13.3-7.3-27.3-8.9-40.9l-.4-3.1c-.7-5.3,0-10.7.8-15.8.3-2,.6-4.2.8-6.2,1.4-14.9,6.3-26.8,15.1-36.5,9.9-10.9,21.6-18.1,35.9-22,.2,0,.4,0,.6,0,.1,0,.2-.1.4-.1,2.3,0,4.6,0,6.9,0,5.2,0,10.6,0,15.9-.1,6.5-.2,12.4,1.6,16.8,3.3,16.5,6.3,29.7,15.3,40.5,27.5,23.3,26.3,32.7,54.6,28.7,86.7-2.8,22.2-14.8,36.5-36.9,43.6-11.4,3.7-23.2,5.5-35.6,5.5ZM1131.9,584.9c0,0-.1,0-.2,0-14,3.8-25.5,10.9-35.2,21.6-8.7,9.6-13.3,20.9-14.7,35.6-.2,2.1-.5,4.2-.8,6.3-.7,5.1-1.4,10.3-.7,15.5l.4,3.1c1.7,13.5,3.4,27.5,8.8,40.5,8,19.1,23,31.5,44.6,36.7,25.6,6.1,48.3,5.8,69.6-1.1,21.4-6.9,33.2-20.8,35.9-42.4,3.9-31.6-5.3-59.6-28.3-85.5-10.6-12-23.7-20.8-39.9-27.1-4.3-1.6-10-3.5-16.2-3.2-5.3.2-10.7.2-16,.1-2.3,0-4.6,0-6.9,0s-.3,0-.4-.1Z"/>
    </g>
  </g>
</svg>